<?xml version="1.0" encoding="UTF-8"?>
<svg width="150px" height="79px" viewBox="0 0 150 79" version="1.1" xmlns="http://www.w3.org/2000/svg" xmlns:xlink="http://www.w3.org/1999/xlink">
    <title>3B6F12E4-48ED-4FB8-9695-B58F59B35FE8</title>
    <g id="EMAILS-DESKTOP" stroke="none" stroke-width="1" fill="none" fill-rule="evenodd">
        <g id="SPIN---EMAILS---SUBSCRIPTION-NOTIFICATION---REACHING-MAX-UPLOAD" transform="translate(-127.000000, -1195.000000)" fill="#3E3F41" fill-rule="nonzero">
            <g id="Group-5" transform="translate(121.000000, 1119.937500)">
                <g id="SPIN-TXT0" transform="translate(6.000000, 75.062500)">
                    <path d="M22.4630259,22.0567871 C14.9218137,20.5001157 9.58204008,18.9928965 9.58204008,13.7283799 C9.58204008,9.07664149 13.5748245,6.30086412 20.262658,6.30086412 C27.2224592,6.30086412 31.5300407,9.56901408 32.3844901,15.5032864 L32.4348149,15.8483772 L40.0156444,15.8483772 L39.9514001,15.3882561 C38.9609669,8.36818398 34.7294078,0 20.1941307,0 C9.22869633,0 2.14147728,5.52360346 2.14147728,14.0713207 C2.14147728,24.3455671 10.2523225,26.9106348 19.2840029,28.8199224 C28.2503683,30.8281146 33.7464697,32.3783357 33.7464697,38.6598489 C33.7464697,44.1705518 29.5224058,47.4602028 22.450177,47.4602028 C13.6294321,47.4602028 8.54128212,43.4524189 7.73180371,35.8690209 L7.69325712,35.5088794 L0,35.5088794 L0.0235562501,35.9388991 C0.766648866,49.1792066 11.9922728,53.8986732 22.2467367,53.8986732 C34.0023762,53.8986732 41.5981961,47.8095938 41.5981961,38.3857114 C41.5981961,26.8622576 32.9316376,24.1724842 22.4630259,22.0567871 Z" id="Path"></path>
                    <path d="M69.932082,0.967544397 L48.116853,0.967544397 L48.116853,52.8687759 L55.9675087,52.8687759 L55.9675087,31.8515615 L69.2446678,31.8515615 C80.1351505,31.8515615 86.1323576,26.3419337 86.1323576,16.3375247 C86.1790351,12.5700534 84.8579079,8.91439734 82.4158238,6.05360278 C79.6768744,2.7220249 75.3596562,0.967544397 69.932082,0.967544397 Z M55.9675087,7.88118664 L68.8367164,7.88118664 C75.0630616,7.88118664 78.3545121,10.8762741 78.3545121,16.5439341 C78.3545121,22.3008233 74.9688366,25.3442879 68.5626073,25.3442879 L55.9675087,25.3442879 L55.9675087,7.88118664 Z" id="Shape"></path>
                    <rect id="Rectangle" x="91.8351116" y="0.96216915" width="7.78105769" height="51.9066068"></rect>
                    <path d="M142.388966,0.967544397 L142.388966,32.6159216 C142.388966,35.6260597 142.630953,39.8682044 142.771219,42.0849561 C141.700481,40.0197864 139.504396,35.8862217 137.721616,33.1512962 L116.858274,1.14385249 L116.739422,0.967544397 L108.799895,0.967544397 L108.799895,52.8687759 L116.175142,52.8687759 L116.175142,21.1462203 C116.175142,18.2511125 115.970631,14.0648704 115.853921,11.8481187 C116.973913,13.8907124 119.21604,17.9199973 120.981688,20.6785739 L141.765796,52.6860176 L141.885719,52.8687759 L149.755648,52.8687759 L149.755648,0.967544397 L142.388966,0.967544397 Z" id="Path"></path>
                    <path d="M8.78005684,71.4735796 C8.62909247,70.2693516 7.55918764,69.3988688 6.35454212,69.5001621 C5.14989661,69.6014554 4.23910247,70.6384864 4.28973736,71.8511507 C4.34037225,73.063815 5.33442116,74.0206675 6.54328382,74.0203716 C7.18939411,74.0174374 7.80345912,73.7374193 8.23079518,73.2508541 C8.65813123,72.7642889 8.85800092,72.1175601 8.78005684,71.4735796 M4.44035314,74.5815473 L4.44035314,75.6297204 L2.42629376,75.6297204 L2.42629376,63.7407498 L4.44035314,63.7407498 L4.44035314,68.3097095 C5.02144488,67.5533121 5.93209715,67.1272181 6.88270797,67.166932 C9.32506281,67.166932 10.7983992,68.9267878 10.7983992,71.4542288 C10.7983992,74.0010206 9.32506281,75.7426005 6.84523212,75.7426005 C5.89905574,75.7916643 4.99297857,75.3542186 4.44035314,74.5815473" id="Shape"></path>
                    <polygon id="Path" points="17.0076125 67.3163639 15.10491 73.0270259 13.1850756 67.3163639 11.1335404 67.3163639 14.1540941 75.6297204 12.9794938 79 14.9003989 79 16.1874267 75.2362523 19.0773503 67.3163639"></polygon>
                    <path d="M145.67185,73.8204123 C145.061795,73.7892038 144.49064,73.5101406 144.089741,73.0474021 C143.688841,72.5846636 143.492703,71.9780783 143.546434,71.3671498 C143.400186,70.5204238 143.768596,69.6673341 144.484147,69.195782 C145.199699,68.7242299 146.1258,68.7242299 146.841351,69.195782 C147.556902,69.6673341 147.925312,70.5204238 147.779064,71.3671498 C147.840285,71.9766878 147.649256,72.5846931 147.250762,73.0486284 C146.852268,73.5125638 146.28135,73.7916328 145.67185,73.8204123 M145.67185,66.7992652 C143.840431,66.7291821 142.149874,67.7819759 141.39863,69.4604117 C140.647386,71.1388475 140.985768,73.1070927 142.253959,74.4355444 C143.52215,75.7639961 145.466402,76.1868488 147.168443,75.5043891 C148.870484,74.8219294 149.989759,73.1707082 149.997634,71.3305981 C150.036322,70.1498761 149.599118,69.0033838 148.78494,68.1505184 C147.970762,67.2976531 146.848421,66.810495 145.67185,66.7992652" id="Shape"></path>
                    <path d="M135.883158,73.8204123 C135.268087,73.7946223 134.689979,73.518536 134.281946,73.0557241 C133.873913,72.5929121 133.671121,71.9832622 133.720266,71.3671498 C133.660119,70.7411276 133.856893,70.1175575 134.265118,69.640527 C134.673343,69.1634965 135.257699,68.8742809 135.883158,68.8397088 C136.842002,68.8659718 137.669587,69.5219593 137.917561,70.4522828 L140.230357,70.4522828 C139.756652,68.2063619 137.664445,66.6866677 135.391625,66.9376257 C133.118805,67.1885836 131.405536,69.1284672 131.42928,71.4240714 C131.453024,73.7196755 133.206048,75.6234173 135.483569,75.8269304 C137.761089,76.0304435 139.821412,74.4674523 140.248559,72.2121385 L137.936834,72.2121385 C137.680552,73.1441128 136.847915,73.7985928 135.885299,73.8247125" id="Path"></path>
                    <path d="M92.7013392,72.13581 L92.7013392,63.9912363 L90.5009713,63.9912363 L90.5009713,72.1540859 C90.4023286,73.15179 90.7535324,74.1414644 91.4582918,74.8517667 C92.1630512,75.5620689 93.1474098,75.9184608 94.1414826,75.8232292 L94.9241926,75.8232292 L94.9241926,73.6516296 L94.1596852,73.6516296 C93.0975125,73.6709805 92.7056221,73.2216099 92.7056221,72.13581" id="Path"></path>
                    <path d="M100.364616,73.7086072 C99.1156768,73.5745678 98.1684538,72.5164551 98.1684538,71.2553446 C98.1684538,69.9942341 99.1156768,68.9361215 100.364616,68.8020821 C101.650334,68.8788749 102.633187,69.9833333 102.564984,71.2746955 C102.564984,71.8928489 102.583186,73.7279581 102.583186,73.7279581 L100.364616,73.7086072 Z M100.364616,66.7207866 C99.1727234,66.7093996 98.0277021,67.1862885 97.1938063,68.0413942 C96.3599106,68.8964999 95.9091946,70.0559353 95.9456772,71.2521195 C95.8556152,73.6323752 97.6958269,75.6394055 100.06588,75.7458257 L104.765351,75.7458257 L104.765351,71.2521195 C104.805984,70.0579266 104.359134,68.8988673 103.528288,68.0433643 C102.697441,67.1878613 101.554666,66.7101227 100.364616,66.7207866" id="Shape"></path>
                    <path d="M125.833205,73.7086072 C124.584266,73.5745678 123.637043,72.5164551 123.637043,71.2553446 C123.637043,69.9942341 124.584266,68.9361215 125.833205,68.8020821 C127.118923,68.8788749 128.101776,69.9833333 128.033573,71.2746955 C128.033573,71.8928489 128.052846,73.7279581 128.052846,73.7279581 L125.833205,73.7086072 Z M125.833205,66.7207866 C124.641313,66.7093996 123.496291,67.1862885 122.662396,68.0413942 C121.8285,68.8964999 121.377784,70.0559353 121.414267,71.2521195 C121.324216,73.6327762 123.165062,75.6399776 125.53554,75.7458257 L130.233941,75.7458257 L130.233941,71.2521195 C130.274573,70.0579266 129.827723,68.8988673 128.996877,68.0433643 C128.16603,67.1878613 127.023256,66.7101227 125.833205,66.7207866" id="Shape"></path>
                    <path d="M118.959063,72.2099884 L118.959063,64.0095121 L116.740492,64.0095121 L116.740492,72.2099884 C116.740492,74.575097 118.063925,76.0672654 120.581232,75.8049534 L120.581232,73.8010614 C119.499786,73.8763149 118.959063,73.4269443 118.959063,72.2099884" id="Path"></path>
                    <path d="M110.768983,73.7645098 C109.607001,73.7127622 108.668367,72.7943946 108.586818,71.6294618 L108.586818,68.8397088 L110.768983,68.8579846 C112.017922,68.9920241 112.965145,70.0501367 112.965145,71.3112472 C112.965145,72.5723577 112.017922,73.6304703 110.768983,73.7645098 M111.066648,66.817541 L108.586818,66.817541 L108.586818,64.0095121 L106.348974,64.0095121 L106.368247,71.3112472 C106.324956,72.9215647 107.15587,74.4285145 108.538087,75.2464826 C109.920305,76.0644508 111.635863,76.0644508 113.018081,75.2464826 C114.400299,74.4285145 115.231212,72.9215647 115.187921,71.3112472 C115.283936,68.9283878 113.439803,66.917603 111.066648,66.817541" id="Shape"></path>
                </g>
            </g>
        </g>
    </g>
</svg>
