<svg xmlns="http://www.w3.org/2000/svg" width="63" height="30" viewBox="0 0 63 30"><g><g><g><g><path fill="#0b0b09" d="M16.334 12.415c.033 3.471 3.113 4.626 3.147 4.641-.027.081-.492 1.646-1.623 3.262-.977 1.398-1.99 2.79-3.588 2.818-1.57.029-2.074-.91-3.869-.91-1.794 0-2.354.882-3.84.939-1.542.057-2.716-1.511-3.702-2.903C.846 17.414-.692 12.215 1.374 8.705 2.4 6.962 4.234 5.86 6.224 5.83c1.514-.028 2.944.997 3.869.997.925 0 2.662-1.233 4.487-1.052.765.031 2.91.302 4.288 2.276-.11.067-2.56 1.462-2.534 4.364M13.387 3.89c-.82.97-2.164 1.724-3.48 1.625-.18-1.317.486-2.69 1.245-3.549C11.999.998 13.427.275 14.607.23c.15 1.343-.4 2.693-1.22 3.662"/></g><g><path fill="#0b0b09" d="M27.241 1.954a21.654 21.654 0 0 1 2.415-.124c1.255 0 2.337.15 3.247.449.91.3 1.657.728 2.242 1.285a5.286 5.286 0 0 1 1.177 1.763c.281.682.422 1.466.422 2.353 0 1.073-.193 2.012-.58 2.816a5.853 5.853 0 0 1-1.583 2.027c-.67.547-1.464.955-2.384 1.223-.92.268-1.924.402-3.011.402-.983 0-1.809-.072-2.478-.216v8.913h-1.475V2.233a36.216 36.216 0 0 1 2.008-.279zm-.533 10.678c.356.103.753.174 1.192.216.44.04.91.062 1.41.062 1.883 0 3.341-.433 4.376-1.3 1.035-.866 1.553-2.135 1.553-3.806 0-.805-.136-1.507-.408-2.105a3.777 3.777 0 0 0-1.16-1.47c-.502-.382-1.097-.67-1.788-.867a8.37 8.37 0 0 0-2.29-.294c-.668 0-1.243.026-1.724.077a12.13 12.13 0 0 0-1.16.17z"/></g><g><path fill="#0b0b09" d="M48.501 21.111c.02.599.084 1.176.188 1.733h-1.38l-.22-2.104h-.062a5.31 5.31 0 0 1-.722.867 5.67 5.67 0 0 1-1.019.789 5.421 5.421 0 0 1-1.318.572 5.72 5.72 0 0 1-1.615.216c-.732 0-1.375-.118-1.929-.355s-1.009-.547-1.364-.928a3.79 3.79 0 0 1-.8-1.316 4.362 4.362 0 0 1-.267-1.485c0-1.754.748-3.106 2.243-4.055 1.495-.95 3.748-1.403 6.76-1.362v-.402c0-.392-.037-.84-.11-1.346a4.197 4.197 0 0 0-.487-1.44c-.25-.453-.627-.835-1.129-1.144-.502-.31-1.181-.465-2.039-.465-.648 0-1.29.098-1.928.294a6.56 6.56 0 0 0-1.741.82l-.47-1.084a7 7 0 0 1 2.07-.973 8.323 8.323 0 0 1 2.226-.295c1.046 0 1.898.175 2.556.526.659.35 1.177.805 1.553 1.362.377.557.633 1.18.77 1.872.135.692.203 1.378.203 2.058v5.85c0 .599.01 1.197.031 1.795zm-1.506-6.22c-.794-.021-1.626.01-2.493.092a9.163 9.163 0 0 0-2.4.542c-.731.279-1.338.686-1.819 1.222-.48.537-.721 1.249-.721 2.136 0 1.052.303 1.826.91 2.322.605.495 1.285.742 2.038.742a5.01 5.01 0 0 0 1.631-.247c.48-.166.899-.388 1.254-.666a4.26 4.26 0 0 0 .894-.944c.24-.35.424-.711.55-1.083.104-.413.156-.713.156-.898z"/></g><g><path fill="#0b0b09" d="M51.352 7.989l3.826 9.657c.209.536.408 1.088.596 1.655.189.568.356 1.089.502 1.563h.063c.146-.454.313-.964.501-1.532.189-.567.398-1.15.628-1.75l3.576-9.593h1.568l-4.36 10.895a127.43 127.43 0 0 1-1.239 3.141 29.887 29.887 0 0 1-1.176 2.538c-.397.753-.8 1.419-1.208 1.997a8.347 8.347 0 0 1-1.364 1.516c-.586.516-1.124.892-1.615 1.13-.491.237-.821.387-.988.448l-.503-1.207c.377-.165.795-.382 1.255-.65.46-.268.91-.619 1.349-1.052.376-.372.79-.862 1.239-1.47.45-.609.852-1.347 1.208-2.214.125-.33.188-.546.188-.65 0-.144-.063-.36-.188-.65L49.783 7.99h1.569"/></g></g></g></g></svg>
