<svg xmlns="http://www.w3.org/2000/svg" width="50" height="15" viewBox="0 0 50 15"><defs><clipPath id="gik0a"><path fill="#fff" d="M1 2.519A2.519 2.519 0 0 1 3.519 0h43.705a2.519 2.519 0 0 1 2.518 2.519v9.962A2.519 2.519 0 0 1 47.224 15H3.519A2.519 2.519 0 0 1 1 12.481z"/></clipPath></defs><g><g><g><g><path fill="#fff" d="M10.191 7.493A1.67 1.67 0 0 1 11 6.087a1.746 1.746 0 0 0-1.37-.73c-.577-.06-1.136.34-1.43.34-.3 0-.751-.335-1.239-.325a1.828 1.828 0 0 0-1.536.924c-.664 1.134-.169 2.8.468 3.717.318.45.69.951 1.177.933.476-.02.654-.3 1.229-.3.57 0 .736.3 1.233.289.51-.008.833-.451 1.14-.904.228-.32.405-.673.521-1.048a1.62 1.62 0 0 1-1.002-1.49"/></g><g><path fill="#fff" d="M9.255 4.752c.279-.33.416-.754.383-1.182a1.71 1.71 0 0 0-1.102.562c-.279.313-.42.723-.393 1.139.432.004.842-.187 1.112-.519"/></g><g><path fill="#fff" d="M16.214 9.81h-1.625l-.39 1.136h-.689l1.54-4.206h.715l1.54 4.206h-.7zm-1.457-.521h1.288l-.635-1.85h-.017z"/></g><g><path fill="#fff" d="M20.628 9.416c0 .953-.517 1.565-1.297 1.565a1.057 1.057 0 0 1-.978-.536h-.015v1.519H17.7V7.883h.618v.51h.011c.204-.347.584-.555.99-.542.79 0 1.31.615 1.31 1.565m-.667 0c0-.62-.323-1.029-.816-1.029-.485 0-.81.417-.81 1.03 0 .617.325 1.03.81 1.03.493 0 .816-.404.816-1.03"/></g><g><path fill="#fff" d="M24.049 9.416c0 .953-.518 1.565-1.298 1.565a1.057 1.057 0 0 1-.978-.536h-.015v1.519h-.638V7.883h.618v.51h.011c.204-.347.584-.555.99-.542.79 0 1.31.615 1.31 1.565m-.666 0c0-.62-.323-1.029-.817-1.029-.484 0-.81.417-.81 1.03 0 .617.326 1.03.81 1.03.494 0 .817-.404.817-1.03"/></g><g><path fill="#fff" d="M26.313 9.774c.047.417.458.691 1.02.691.537 0 .924-.274.924-.65 0-.326-.233-.522-.786-.655l-.552-.132c-.783-.187-1.147-.548-1.147-1.134 0-.725.641-1.224 1.552-1.224.9 0 1.518.499 1.54 1.224h-.645c-.039-.42-.39-.673-.905-.673-.513 0-.865.256-.865.63 0 .297.225.472.774.606l.47.113c.875.205 1.238.551 1.238 1.167 0 .786-.636 1.28-1.646 1.28-.946 0-1.584-.482-1.625-1.243z"/></g><g><path fill="#fff" d="M30.303 7.15v.726h.591v.498h-.59v1.69c0 .263.118.386.378.386.07-.002.14-.006.21-.015v.496a1.755 1.755 0 0 1-.355.029c-.63 0-.875-.233-.875-.828V8.374h-.452v-.498h.452V7.15z"/></g><g><path fill="#fff" d="M31.24 9.411c0-.965.576-1.571 1.474-1.571.902 0 1.475.606 1.475 1.571 0 .968-.57 1.572-1.475 1.572-.904 0-1.474-.604-1.474-1.572m2.299 0c0-.662-.308-1.052-.825-1.052-.517 0-.824.393-.824 1.052 0 .665.307 1.052.824 1.052.517 0 .825-.387.825-1.052"/></g><g><path fill="#fff" d="M34.72 7.873h.608v.522h.015a.74.74 0 0 1 .748-.554.99.99 0 0 1 .219.023v.589a.903.903 0 0 0-.287-.038.64.64 0 0 0-.665.706v1.818h-.638z"/></g><g><path fill="#fff" d="M39.244 10.044c-.086.556-.635.939-1.338.939-.905 0-1.466-.598-1.466-1.557 0-.962.565-1.586 1.44-1.586.86 0 1.4.583 1.4 1.513v.215h-2.196v.038a.802.802 0 0 0 .837.87.705.705 0 0 0 .718-.432zm-2.157-.916h1.544a.74.74 0 0 0-.7-.777h-.057a.779.779 0 0 0-.787.77z"/></g><g><path fill="#fff" d="M14.68 3.572a.902.902 0 0 1 .964 1.005c0 .645-.354 1.016-.964 1.016h-.74v-2.02zm-.422 1.736h.387a.64.64 0 0 0 .675-.727.639.639 0 0 0-.675-.723h-.387z"/></g><g><path fill="#fff" d="M16.003 4.832a.726.726 0 0 1 .66-.789.73.73 0 0 1 .799.789.726.726 0 0 1-.658.789.73.73 0 0 1-.8-.79m1.146 0c0-.33-.151-.523-.417-.523s-.417.193-.417.524c0 .333.15.525.417.525.266 0 .417-.194.417-.525"/></g><g><path fill="#fff" d="M19.398 5.595h-.316l-.32-1.123h-.024l-.318 1.123h-.314L17.68 4.07h.31l.276 1.164h.023l.318-1.164h.293l.318 1.164h.024l.276-1.164h.305z"/></g><g><path fill="#fff" d="M20.18 4.07h.294v.243h.023a.464.464 0 0 1 .461-.272.501.501 0 0 1 .535.568v.987h-.305v-.912c0-.245-.108-.366-.334-.366a.353.353 0 0 0-.369.386v.892h-.305z"/></g><g><path fill="#fff" d="M21.98 5.59h.304V3.47h-.305z"/></g><g><path fill="#fff" d="M22.714 4.832a.725.725 0 0 1 .66-.789.73.73 0 0 1 .798.789.726.726 0 0 1-.658.789.73.73 0 0 1-.8-.79m1.146 0c0-.33-.151-.523-.417-.523s-.416.193-.416.524c0 .333.15.525.416.525s.417-.194.417-.525"/></g><g><path fill="#fff" d="M24.49 5.163c0-.274.207-.432.575-.455l.419-.024v-.131c0-.161-.108-.253-.317-.253-.17 0-.288.062-.322.17h-.295c.031-.262.281-.43.632-.43.387 0 .606.19.606.513v1.042h-.294V5.38h-.024a.522.522 0 0 1-.465.24.465.465 0 0 1-.515-.457m.984-.13v-.127l-.372.023c-.21.014-.305.086-.305.22 0 .138.12.217.283.217a.359.359 0 0 0 .394-.333"/></g><g><path fill="#fff" d="M26.19 4.827c0-.482.251-.787.642-.787a.51.51 0 0 1 .474.268h.023V3.47h.305v2.12h-.292v-.24h-.025a.54.54 0 0 1-.485.266c-.393 0-.642-.306-.642-.789m.315 0c0 .324.153.518.408.518.254 0 .412-.197.412-.516 0-.318-.16-.519-.412-.519-.253 0-.408.196-.408.517"/></g><g><path fill="#fff" d="M28.894 4.832a.725.725 0 0 1 .659-.789.73.73 0 0 1 .799.789.726.726 0 0 1-.658.789.73.73 0 0 1-.8-.79m1.144 0c0-.33-.15-.523-.415-.523s-.414.193-.414.524c0 .333.15.525.414.525.265 0 .415-.194.415-.525"/></g><g><path fill="#fff" d="M30.76 4.07h.294v.243h.023a.463.463 0 0 1 .461-.272.5.5 0 0 1 .535.568v.987h-.305v-.912c0-.245-.108-.366-.334-.366a.353.353 0 0 0-.369.386v.892h-.305z"/></g><g><path fill="#fff" d="M33.8 3.69v.387h.336v.253H33.8v.785c0 .16.066.23.218.23.04-.001.078-.003.117-.008v.251c-.055.01-.11.015-.166.015-.34 0-.475-.117-.475-.411V4.33h-.245v-.253h.245V3.69z"/></g><g><path fill="#fff" d="M34.55 3.47h.303v.84h.024a.476.476 0 0 1 .47-.273.507.507 0 0 1 .533.569v.985h-.305v-.91c0-.244-.115-.368-.33-.368a.36.36 0 0 0-.39.387v.89h-.305z"/></g><g><path fill="#fff" d="M37.66 5.183a.628.628 0 0 1-.669.441.698.698 0 0 1-.714-.787.705.705 0 0 1 .713-.797c.43 0 .69.29.69.769v.105h-1.092v.017a.405.405 0 0 0 .411.437.372.372 0 0 0 .368-.185zm-.292-.501a.363.363 0 0 0-.344-.385h-.036a.389.389 0 0 0-.4.385z"/></g></g><g><path fill="none" stroke="#505050" stroke-miterlimit="50" d="M1 2.519A2.519 2.519 0 0 1 3.519 0h43.705a2.519 2.519 0 0 1 2.518 2.519v9.962A2.519 2.519 0 0 1 47.224 15H3.519A2.519 2.519 0 0 1 1 12.481z" clip-path="url(&quot;#gik0a&quot;)"/></g></g></g></svg>
