<svg xmlns="http://www.w3.org/2000/svg" width="30" height="30" viewBox="0 0 30 30"><g><g><g><path fill="none" stroke="#000" stroke-miterlimit="50" stroke-width=".96" d="M14.8 28.796c7.622 0 13.8-6.216 13.8-13.883 0-7.667-6.178-13.883-13.8-13.883C7.178 1.03 1 7.246 1 14.913c0 7.667 6.178 13.883 13.8 13.883z"/></g><g><path d="M12.702 18.663c-1.457.595-3.103-.105-3.758-1.597-.654-1.493-.091-3.264 1.286-4.042l.109-.062.016-.13c.144-1.22.957-2.236 2.076-2.593 1.119-.357 2.333.013 3.097.944l.137.168.177-.122a2.647 2.647 0 0 1 2.703-.194c.87.436 1.463 1.318 1.561 2.327l.016.17.156.047c.948.293 1.645 1.143 1.78 2.173.137 1.029-.313 2.047-1.15 2.6a2.412 2.412 0 0 1-2.727-.031l-.21-.147-.13.228c-.534.942-1.5 1.52-2.543 1.523a2.893 2.893 0 0 1-2.322-1.184l-.11-.146zm5.423.213c.99.573 2.201.513 3.134-.157.934-.67 1.43-1.834 1.283-3.011-.147-1.178-.911-2.17-1.977-2.564-.16-1.11-.831-2.067-1.793-2.556a3.105 3.105 0 0 0-3.02.105c-.907-.98-2.261-1.337-3.5-.924-1.24.412-2.153 1.524-2.359 2.874-1.512.938-2.11 2.923-1.387 4.605.723 1.683 2.535 2.523 4.204 1.948a3.35 3.35 0 0 0 2.588 1.236c1.127-.004 2.182-.584 2.827-1.556z"/><path fill="none" stroke="#000" stroke-miterlimit="50" stroke-width=".67" d="M12.702 18.663c-1.457.595-3.103-.105-3.758-1.597-.654-1.493-.091-3.264 1.286-4.042l.109-.062.016-.13c.144-1.22.957-2.236 2.076-2.593 1.119-.357 2.333.013 3.097.944l.137.168.177-.122a2.647 2.647 0 0 1 2.703-.194c.87.436 1.463 1.318 1.561 2.327l.016.17.156.047c.948.293 1.645 1.143 1.78 2.173.137 1.029-.313 2.047-1.15 2.6a2.412 2.412 0 0 1-2.727-.031l-.21-.147-.13.228c-.534.942-1.5 1.52-2.543 1.523a2.893 2.893 0 0 1-2.322-1.184l-.11-.146zm5.423.213c.99.573 2.201.513 3.134-.157.934-.67 1.43-1.834 1.283-3.011-.147-1.178-.911-2.17-1.977-2.564-.16-1.11-.831-2.067-1.793-2.556a3.105 3.105 0 0 0-3.02.105c-.907-.98-2.261-1.337-3.5-.924-1.24.412-2.153 1.524-2.359 2.874-1.512.938-2.11 2.923-1.387 4.605.723 1.683 2.535 2.523 4.204 1.948a3.35 3.35 0 0 0 2.588 1.236c1.127-.004 2.182-.584 2.827-1.556z"/></g></g></g></svg>
