<svg xmlns="http://www.w3.org/2000/svg" width="28" height="24" viewBox="0 0 28 24"><g><g><g><path d="M26 19a3.003 3.003 0 0 1-3 3H5a3.003 3.003 0 0 1-3-3V9a3.003 3.003 0 0 1 3-3h18a3.003 3.003 0 0 1 3 3zM6.083 2h5.01l.002 2H6.083zM23 4h-9.917V2a2.003 2.003 0 0 0-2-2h-5a2.003 2.003 0 0 0-2 2v2c0 .031.008.06.01.092A5.002 5.002 0 0 0 0 9v10a5.006 5.006 0 0 0 5 5h18a5.006 5.006 0 0 0 5-5V9a5.006 5.006 0 0 0-5-5z"/></g><g><path d="M19 14a5 5 0 1 1-10 0 5 5 0 0 1 10 0zm2 0a7 7 0 1 0-7 7 7.008 7.008 0 0 0 7-7z"/></g><g><path d="M24 9h-2a1 1 0 0 1 0-2h2a1 1 0 0 1 0 2z"/></g></g></g></svg>
