<svg xmlns="http://www.w3.org/2000/svg" width="30" height="30" viewBox="0 0 30 30"><g><g><g><path fill="none" stroke="#000" stroke-miterlimit="50" stroke-width=".96" d="M14.8 28.766c7.622 0 13.8-6.216 13.8-13.883C28.6 7.216 22.422 1 14.8 1 7.178 1 1 7.216 1 14.883c0 7.667 6.178 13.883 13.8 13.883z"/></g><g><g><path d="M18.871 16.678c0 2.445-1.868 4.426-4.175 4.426-2.308 0-4.176-1.98-4.176-4.426 0-2.444 1.634-4.958 4.176-8.978 2.542 4.02 4.175 6.534 4.175 8.978zm-7.307.007c0 1.826 1.407 3.311 3.137 3.311s3.136-1.485 3.136-3.312c0-1.833-1.224-3.95-3.136-6.988-1.913 3.039-3.137 5.155-3.137 6.989z"/></g></g></g></g></svg>
