<svg xmlns="http://www.w3.org/2000/svg" width="7" height="7" viewBox="0 0 7 7"><g><g><path fill="#fff" d="M3.5 4.66c.627 0 1.135-.52 1.135-1.16 0-.64-.508-1.16-1.135-1.16-.628 0-1.136.52-1.136 1.16 0 .64.508 1.16 1.136 1.16m2.252-3.054a.402.402 0 0 1-.398.406.402.402 0 0 1-.397-.406c0-.224.178-.405.397-.405.22 0 .398.181.398.405m.621.325c0-.717-.574-1.304-1.277-1.304H1.904C1.2.627.627 1.214.627 1.93V5.07c0 .717.574 1.304 1.277 1.304h3.192c.703 0 1.277-.587 1.277-1.304zM5.155 0C6.17 0 7 .848 7 1.884v3.232C7 6.152 6.17 7 5.155 7h-3.31C.83 7 0 6.152 0 5.116V1.884C0 .848.83 0 1.845 0zM3.5 1.703c.972 0 1.76.805 1.76 1.797 0 .993-.788 1.798-1.76 1.798S1.74 4.493 1.74 3.5c0-.992.788-1.797 1.76-1.797"/></g></g></svg>
