<svg xmlns="http://www.w3.org/2000/svg" width="22" height="18" viewBox="0 0 22 18"><g><g><g><g><path d="M18.81 15.647c-.42.418-.979.647-1.573.647-.55 0-1.072-.2-1.48-.563l-3.83-3.809 3.15-3.131 1.147 1.14-.008.008 2.593 2.578c.868.863.868 2.267.002 3.13zm-9.756-3.269l-.002-.001-3.289 3.27a2.234 2.234 0 0 1-3.145 0 2.204 2.204 0 0 1 0-3.128l2.593-2.578 1.154-1.148 3.15 3.131zM4.98 5.001l-.06-.06a1.915 1.915 0 0 1-.503-1.297c0-1.066.872-1.933 1.946-1.933 1.073 0 1.945.867 1.945 1.933 0 .482-.175.938-.498 1.293L6.363 6.374zm8.717 0l-.06-.06a1.915 1.915 0 0 1-.503-1.297c0-1.066.872-1.933 1.945-1.933s1.946.867 1.946 1.933c0 .482-.175.936-.499 1.293L15.08 6.374zm6.328 6.308l-.232-.23.007-.008-3.504-3.489.788-.784.003.004.592-.595a3.613 3.613 0 0 0 1.062-2.565C18.74 1.634 17.099 0 15.08 0c-2.017 0-3.659 1.634-3.659 3.642a3.61 3.61 0 0 0 1.062 2.565l.609.608.774.767-3.146 3.132-3.146-3.132.772-.769.004.004.607-.61a3.613 3.613 0 0 0 1.062-2.565C10.02 1.634 8.378 0 6.36 0 4.343 0 2.701 1.634 2.701 3.642a3.61 3.61 0 0 0 1.062 2.565l.609.608.774.767-2.882 2.87-.862.857a3.911 3.911 0 0 0 0 5.545A3.94 3.94 0 0 0 4.19 18a3.944 3.944 0 0 0 2.786-1.146L9.42 14.42l.002.002 1.299-1.293.45.448-.003.004 3.286 3.27c.03.03.064.057.094.085l.077.077.004-.004a3.921 3.921 0 0 0 2.875.982 3.915 3.915 0 0 0 2.522-1.141 3.908 3.908 0 0 0-.001-5.541z"/></g></g></g></g></svg>
