<svg xmlns="http://www.w3.org/2000/svg" width="7" height="7" viewBox="0 0 7 7"><g><g><path fill="#fff" d="M7 4.292V7H5.5V4.473c0-.334-.06-.596-.184-.785-.123-.189-.315-.283-.576-.283a.717.717 0 0 0-.481.164c-.13.11-.226.246-.29.408-.033.095-.05.224-.05.386V7h-1.5c.007-1.268.01-2.297.01-3.085 0-.789-.001-1.259-.005-1.412l-.004-.228h1.5v.671c.057-.095.116-.18.177-.252a1.98 1.98 0 0 1 .257-.248c.108-.089.24-.158.397-.207.156-.05.33-.074.522-.074.52 0 .937.18 1.253.541.316.36.474.89.474 1.586zM1.686.815a.773.773 0 0 1-.23.582c-.156.156-.362.234-.617.234h-.01a.802.802 0 0 1-.601-.234A.8.8 0 0 1 0 .815C0 .58.078.385.235.231A.836.836 0 0 1 .848 0c.252 0 .454.077.606.231.152.154.23.35.232.584zm-.095 1.46V7H.087V2.275z"/></g></g></svg>
