<svg xmlns="http://www.w3.org/2000/svg" width="8" height="7" viewBox="0 0 8 7"><g><g><path fill="#fff" d="M7.086 6.085a.834.834 0 0 1-1.162.033L4.466 4.637l1.199-1.218.437.443-.003.003.986 1.003c.33.335.33.881.001 1.217zM3.364 4.814h-.001L2.107 6.084a.843.843 0 0 1-1.202 0 .868.868 0 0 1 0-1.216l.99-1.003.442-.447 1.202 1.218zM1.81 1.944l-.023-.023A.75.75 0 0 1 2.34.665a.75.75 0 0 1 .556 1.255l-.556.559zm3.332 0l-.023-.023a.753.753 0 0 1-.192-.504c0-.414.333-.752.743-.752s.742.338.742.752a.751.751 0 0 1-.19.503l-.552.559zm2.329 2.364l.003-.003-1.34-1.356.301-.305.002.001.226-.231c.261-.267.406-.622.406-.998A1.41 1.41 0 0 0 5.669 0a1.41 1.41 0 0 0-1.398 1.416c0 .377.144.73.406.998l.232.236h.001l.296.299-1.203 1.218L2.8 2.949l.296-.3v.002l.233-.237c.262-.267.406-.622.406-.998A1.41 1.41 0 0 0 2.335 0 1.41 1.41 0 0 0 .938 1.416c0 .377.144.73.406.998l.233.236.296.299L.77 4.064l-.33.334a1.54 1.54 0 0 0 0 2.156 1.493 1.493 0 0 0 2.13 0l.936-.946.497-.502.172.174-.001.002L5.43 6.553c.011.012.024.022.036.033l.03.03v-.001a1.485 1.485 0 0 0 1.1.381c.365-.024.703-.18.964-.443a1.539 1.539 0 0 0 0-2.155z"/></g></g></svg>
