<svg xmlns="http://www.w3.org/2000/svg" width="42" height="42" viewBox="0 0 42 42"><defs><clipPath id="p4rva"><path fill="#fff" d="M0 20V0h24v20zm2-2a71.346 71.346 0 0 1 2.325-2.188 12.58 12.58 0 0 1 2.263-1.624c.791-.442 1.67-.78 2.637-1.013.967-.233 2.117-.35 3.45-.35v4.1L21.2 9.45 12.675 2v4.125C10.808 6.408 9.25 6.917 8 7.65c-1.25.733-2.275 1.625-3.075 2.675a12.26 12.26 0 0 0-1.862 3.538A29.74 29.74 0 0 0 2 18z"/></clipPath></defs><g><g><g><path fill="none" stroke="#000" stroke-linecap="round" stroke-linejoin="round" stroke-miterlimit="50" stroke-width="4" d="M2 18a71.346 71.346 0 0 1 2.325-2.188 12.58 12.58 0 0 1 2.263-1.624c.791-.442 1.67-.78 2.637-1.013.967-.233 2.117-.35 3.45-.35v4.1L21.2 9.45v0L12.675 2v4.125C10.808 6.408 9.25 6.917 8 7.65c-1.25.733-2.275 1.625-3.075 2.675a12.26 12.26 0 0 0-1.862 3.538A29.74 29.74 0 0 0 2 18z" clip-path="url(&quot;#p4rva&quot;)"/></g></g></g></svg>
