<svg xmlns="http://www.w3.org/2000/svg" width="143" height="38" viewBox="0 0 143 38"><g><g><g><g><g><path fill="#00c800" d="M15.63 23.93c-2.456 1.374-2.82-.772-2.82-.772l-3.075-7.206c-1.184-3.424 1.025-1.544 1.025-1.544s1.896 1.438 3.33 2.315c1.436.878 3.076.258 3.076.258l20.106-9.32C33.566 3.032 27.437 0 20.5 0 9.179 0 0 8.062 0 18.01c0 5.722 3.037 10.815 7.773 14.117l-.853 4.925s-.414 1.438 1.025.772c.983-.456 3.489-2.083 4.978-3.078 2.343.822 4.9 1.277 7.577 1.277 11.321 0 20.5-8.062 20.5-18.01 0-2.88-.774-5.603-2.142-8.015-6.41 3.867-21.307 12.857-23.228 13.932z"/></g></g></g><g><g><text dominant-baseline="text-before-edge" font-family="'Avenir Next Cyr Medium','AvenirNext-Medium'" font-size="16" transform="translate(53 8)"><tspan>WeChat Pay</tspan></text></g></g></g></g></svg>
