<svg xmlns="http://www.w3.org/2000/svg" width="50" height="51" viewBox="0 0 50 51"><g><g transform="rotate(180 25 25.5)"><path fill="#fff" d="M7.62 13.158a1.782 1.782 0 0 0-.698-.255 1.89 1.89 0 0 0-1.36.332c-.2.142-.369.325-.504.549a1.82 1.82 0 0 0-.252.703 1.932 1.932 0 0 0 .33 1.373c.14.203.321.372.543.509.221.136.454.221.696.255a1.887 1.887 0 0 0 1.36-.333 1.8 1.8 0 0 0 .505-.549c.135-.223.22-.458.252-.703a1.939 1.939 0 0 0-.33-1.373 1.799 1.799 0 0 0-.543-.508m-5.194 6.168a.763.763 0 0 0-.061.148c-.02.062-.037.126-.05.192-.062.304-.036.588.078.852.114.264.286.484.516.661l-.004.02-.722-.145-.32 1.568 4.986 1 .333-1.628-2.56-.513a1.27 1.27 0 0 1-.668-.397 1.142 1.142 0 0 1-.216-.416 1.174 1.174 0 0 1-.008-.574c.014-.066.031-.134.052-.202.02-.068.049-.136.083-.205zm2.302 6.596c.315-.011.568.064.76.225.19.161.292.4.305.717.003.076-.003.155-.016.238a.635.635 0 0 1-.077.221.45.45 0 0 1-.394.233.491.491 0 0 1-.362-.12.857.857 0 0 1-.22-.33 2.04 2.04 0 0 1-.113-.462 5.442 5.442 0 0 1-.046-.517l-.008-.199zm-1.336 2.12a2.05 2.05 0 0 1-.383-.514 1.447 1.447 0 0 1-.176-.636 1.02 1.02 0 0 1 .152-.614c.11-.168.29-.257.538-.266l.08-.003c.014.342.048.693.103 1.052.054.36.148.684.28.975.133.29.313.524.542.703.228.179.524.262.886.25.295-.011.54-.074.738-.189.196-.114.352-.258.466-.43a1.67 1.67 0 0 0 .24-.565c.045-.204.064-.401.056-.591a1.855 1.855 0 0 0-.202-.787 1.2 1.2 0 0 0-.505-.529v-.028l.532-.02-.056-1.424-2.524.09c-.456.016-.849.07-1.177.16a2.104 2.104 0 0 0-.81.405 1.502 1.502 0 0 0-.456.686c-.093.28-.132.618-.116 1.017.015.386.1.762.256 1.127.156.366.38.683.673.951zm4.16 1.753L0 31.527l.429 1.489 7.55-1.732zm.189 2.416L3.19 34.526l.778 1.468 2.457-1.25a1.33 1.33 0 0 1 .792-.148c.266.035.467.181.603.437a.7.7 0 0 1 .098.371.63.63 0 0 1-.108.31c-.065.098-.15.185-.256.262a2.662 2.662 0 0 1-.351.213l-2.466 1.255.783 1.477 2.813-1.432a3.03 3.03 0 0 0 .635-.431 1.85 1.85 0 0 0 .446-.58c.106-.217.159-.456.16-.718 0-.261-.079-.541-.237-.84a1.741 1.741 0 0 0-.299-.41 2.136 2.136 0 0 0-.368-.301 1.538 1.538 0 0 0-.803-.246l-.01-.017.631-.321zm-.824 7.367c-.005.145.01.297.042.458.032.16.082.321.15.483.07.162.15.32.244.475a3.11 3.11 0 0 0 1.177 1.119c.314.168.636.265.965.29.33.027.658-.021.985-.143a2.6 2.6 0 0 0 .92-.612c.292-.29.505-.604.64-.941a2.651 2.651 0 0 0-.025-2.062 3.396 3.396 0 0 0-.606-.948 3.085 3.085 0 0 0-.812-.657 1.991 1.991 0 0 0-.863-.266l-.179 1.459a.879.879 0 0 1 .457.101c.153.077.285.178.396.303a1.177 1.177 0 0 1 .304.901 1.275 1.275 0 0 1-.13.46c-.072.148-.17.282-.292.404a1.356 1.356 0 0 1-.403.281 1.222 1.222 0 0 1-.442.11 1.003 1.003 0 0 1-.824-.349A1.211 1.211 0 0 1 8.372 40a1.077 1.077 0 0 1-.048-.488zm3.19 4.514a.76.76 0 0 0 .11.114c.05.042.1.082.155.12.253.177.52.265.803.264.283 0 .549-.07.797-.211l.016.011-.407.602 1.3.908 2.811-4.158-1.348-.942-1.443 2.134a1.244 1.244 0 0 1-.616.454 1.11 1.11 0 0 1-.46.034 1.158 1.158 0 0 1-.523-.219 2.19 2.19 0 0 1-.163-.126 1.298 1.298 0 0 1-.154-.157zm6.544-1.95l-2 4.545 1.435.687 2-4.545zm-2.743 5.945a.883.883 0 0 0-.077.356.934.934 0 0 0 .247.643c.083.091.18.164.29.217a.842.842 0 0 0 .354.086c.12.002.233-.015.341-.052a.78.78 0 0 0 .29-.176.875.875 0 0 0 .2-.286.896.896 0 0 0 .018-.692.907.907 0 0 0-.48-.523.906.906 0 0 0-.686-.041.874.874 0 0 0-.497.468zm5.288-4.505a3.348 3.348 0 0 0-1.291.633l.962 1.323c.19-.183.42-.317.692-.403.272-.085.575-.096.908-.034a2 2 0 0 1 .764.305c.222.15.403.336.541.556.14.22.233.47.283.752.05.281.045.58-.013.896-.056.31-.158.585-.303.826a2.075 2.075 0 0 1-.536.6 1.92 1.92 0 0 1-.714.332 2.003 2.003 0 0 1-.838.012 2.074 2.074 0 0 1-.754-.304 1.438 1.438 0 0 1-.528-.599l-1.347.933c.233.39.57.717 1.01.98.442.263.908.44 1.397.531a4.252 4.252 0 0 0 1.526.019 3.58 3.58 0 0 0 1.33-.513 3.425 3.425 0 0 0 1.011-1.011c.276-.418.465-.907.568-1.467.1-.546.098-1.064-.009-1.553a3.573 3.573 0 0 0-.569-1.316 3.554 3.554 0 0 0-1.041-.975 4.11 4.11 0 0 0-1.435-.543c-.588-.11-1.126-.103-1.614.02m8.199.4l.78 3.01c.062.24.154.473.275.698.122.224.273.41.455.558.182.147.397.249.645.304.248.056.528.04.839-.05.161-.045.308-.111.44-.197.13-.087.247-.183.35-.289.103-.106.186-.222.25-.349.064-.127.11-.25.14-.37l.019-.005.174.674 1.484-.421-1.26-4.866-1.54.437.683 2.638c.036.137.053.274.051.41a1.12 1.12 0 0 1-.066.381.791.791 0 0 1-.197.303.792.792 0 0 1-.338.185.66.66 0 0 1-.362.013.573.573 0 0 1-.268-.165 1.125 1.125 0 0 1-.193-.296 2.306 2.306 0 0 1-.133-.382l-.689-2.657zm7.908.048a1.583 1.583 0 0 1-.194-.451 1.366 1.366 0 0 1-.038-.488c.017-.164.067-.319.151-.466.084-.146.208-.274.371-.383.164-.11.328-.173.493-.192.164-.02.322-.003.475.048.152.05.291.128.418.233a1.584 1.584 0 0 1 .516.817c.042.162.055.32.037.477a1.154 1.154 0 0 1-.523.837 1.12 1.12 0 0 1-.962.153 1.246 1.246 0 0 1-.418-.222 1.462 1.462 0 0 1-.326-.363m-1.337.891c.224.354.487.631.79.833.304.2.626.328.964.383.34.054.683.039 1.03-.045a3.118 3.118 0 0 0 1.005-.447 3.21 3.21 0 0 0 .803-.758 2.629 2.629 0 0 0 .507-2.006 2.798 2.798 0 0 0-.419-1.08 2.755 2.755 0 0 0-.793-.837 2.494 2.494 0 0 0-2.003-.363c-.355.08-.69.225-1.006.435-.322.215-.589.471-.801.77a2.881 2.881 0 0 0-.451.961c-.088.343-.104.7-.047 1.07.058.369.198.73.421 1.084m8.307-1.14a.878.878 0 0 0 .316.187c.117.04.235.057.353.052a.991.991 0 0 0 .354-.082c.117-.05.221-.12.311-.209a.879.879 0 0 0 .208-.31c.043-.113.066-.227.069-.342a.76.76 0 0 0-.069-.332.907.907 0 0 0-.867-.52.965.965 0 0 0-.672.29.942.942 0 0 0-.208.303.858.858 0 0 0-.072.339.853.853 0 0 0 .277.625zM37.5 39.267l3.682 3.359 1.166-1.15-3.682-3.36zm2.128-1.772l2.573 1.584c.206.127.428.227.666.3.238.072.472.095.702.07.231-.025.454-.105.67-.24.215-.136.408-.35.578-.641.174-.298.257-.592.25-.884a1.595 1.595 0 0 0-.176-.738l.01-.018 2.681 1.651.822-1.406-6.316-3.888-.822 1.406 2.248 1.384c.25.154.422.349.515.585.093.236.068.477-.076.723a.678.678 0 0 1-.251.265.618.618 0 0 1-.305.075.908.908 0 0 1-.338-.074 2.475 2.475 0 0 1-.349-.18l-2.256-1.389zm6.395-3.405a2.41 2.41 0 0 0 .752-.753c.209-.322.363-.668.463-1.038.065-.238.099-.486.102-.745a2.282 2.282 0 0 0-.108-.74 1.661 1.661 0 0 0-.37-.626 1.46 1.46 0 0 0-.692-.397 1.27 1.27 0 0 0-.618-.035c-.185.04-.351.113-.498.217a1.673 1.673 0 0 0-.387.387 3.97 3.97 0 0 0-.294.472c-.17.315-.31.542-.425.68-.114.14-.246.188-.394.146-.156-.044-.247-.139-.274-.285a.936.936 0 0 1 .014-.417 1.55 1.55 0 0 1 .337-.63c.16-.183.339-.325.533-.427l-.696-1.177a2.55 2.55 0 0 0-.82.81c-.23.35-.4.728-.51 1.131-.067.251-.106.51-.115.778-.01.267.023.52.098.758.075.238.201.45.378.634.176.185.417.32.722.406.233.065.446.075.64.03.193-.045.369-.127.526-.246.158-.12.298-.263.42-.432.122-.168.228-.34.316-.513.157-.297.284-.509.38-.635.098-.125.214-.169.35-.13.142.04.225.132.249.277a1.05 1.05 0 0 1-.026.446 1.346 1.346 0 0 1-.28.53c-.132.154-.277.28-.436.378zm-.813-7.08c-.318-.005-.568-.094-.75-.266-.184-.172-.272-.417-.267-.736.002-.077.011-.156.03-.239a.644.644 0 0 1 .09-.219.455.455 0 0 1 .409-.214.491.491 0 0 1 .357.14c.09.09.157.205.202.343.045.138.074.294.088.47.014.176.02.35.016.522l-.003.201zm1.464-2.065c.14.149.258.328.356.537.097.209.144.425.14.648a1.032 1.032 0 0 1-.187.61c-.121.164-.307.244-.557.24l-.08-.001a9.568 9.568 0 0 0-.043-1.063 3.67 3.67 0 0 0-.227-.994 1.845 1.845 0 0 0-.504-.735c-.22-.192-.512-.29-.876-.296-.298-.005-.548.045-.753.15a1.404 1.404 0 0 0-.493.41 1.692 1.692 0 0 0-.273.556 2.32 2.32 0 0 0-.092.592c-.005.287.048.554.159.801.11.247.27.433.477.558v.029l-.538-.009-.024 1.436 2.543.039a5.19 5.19 0 0 0 1.192-.102c.336-.074.615-.196.837-.365.223-.169.389-.391.498-.667.11-.276.168-.615.175-1.017a3.192 3.192 0 0 0-.193-1.147 2.72 2.72 0 0 0-.622-.99zm1.915-2.608L50 21.98l-1.135-4.532-6.844 1.735.412 1.643 2.658-.674.667 2.665 1.363-.346-.667-2.664 1.411-.358zM41.9 13.931c-.13.108-.27.188-.418.24a1.12 1.12 0 0 1-.444.064 1.104 1.104 0 0 1-.434-.123 1.143 1.143 0 0 1-.383-.327 1.127 1.127 0 0 1-.23-.908c.027-.15.081-.295.164-.432.082-.138.186-.258.31-.363.13-.108.269-.19.416-.244a1.1 1.1 0 0 1 .437-.072c.145.007.286.045.422.115s.26.177.373.322c.113.145.188.295.227.45.038.156.046.312.023.468a1.25 1.25 0 0 1-.155.444c-.081.14-.184.262-.308.366zm2.78-.327l-.934-1.204-.479.4-.012-.015c.095-.302.104-.604.026-.905a2.23 2.23 0 0 0-.4-.818 2.177 2.177 0 0 0-.764-.642 2.114 2.114 0 0 0-.878-.22 2.35 2.35 0 0 0-.902.159 2.904 2.904 0 0 0-.837.495c-.259.217-.472.463-.64.74a2.474 2.474 0 0 0-.33.871 2.288 2.288 0 0 0 .49 1.838c.2.26.424.452.67.579.247.127.49.187.733.181l.018.024-.225.187c-.314.263-.635.384-.963.364-.328-.02-.637-.217-.926-.59a2.56 2.56 0 0 1-.523-1.675l-1.369.095c.016.423.113.855.292 1.299.18.443.402.835.667 1.177.265.342.55.617.857.827.306.209.624.338.954.386.33.05.67.015 1.025-.101.353-.117.712-.327 1.076-.631zm-7.748-1.257l1.725-2.624a3.01 3.01 0 0 0 .333-.683c.083-.245.117-.489.1-.73a1.644 1.644 0 0 0-.224-.71c-.133-.233-.342-.442-.628-.627a1.725 1.725 0 0 0-.46-.213 2.189 2.189 0 0 0-.465-.083c-.153-.01-.3.003-.44.037-.14.034-.267.08-.378.138l-.017-.011.386-.588-1.364-.885-2.788 4.243 1.415.918 1.512-2.3c.078-.12.17-.225.274-.315.104-.09.216-.158.335-.202a.803.803 0 0 1 .745.094.73.73 0 0 1 .266.276c.05.102.072.209.064.32a1.123 1.123 0 0 1-.09.35c-.05.121-.115.241-.193.36l-1.523 2.318zM34.52 2.82a.822.822 0 0 0 .052-.354.89.89 0 0 0-.308-.609.987.987 0 0 0-1.046-.166.856.856 0 0 0-.473.491.83.83 0 0 0 .036.68.917.917 0 0 0 .54.472.997.997 0 0 0 .718-.015.922.922 0 0 0 .287-.196.833.833 0 0 0 .194-.303zm-2.387 6.038l1.724-4.608-1.549-.556-1.723 4.608zM28.66 5.307L30.85 3.29l-1.971-.26-1.835 1.828-.03-.004.592-4.638L25.973 0 25 7.622l1.634.216.308-2.41.03.004 1.307 2.623 2.01.266zm-5.96.671c.048.31 0 .568-.144.776-.144.208-.378.338-.703.39-.078.012-.16.017-.247.014a.679.679 0 0 1-.237-.048.495.495 0 0 1-.185-.132.43.43 0 0 1-.1-.226.474.474 0 0 1 .081-.372.895.895 0 0 1 .315-.258c.132-.068.286-.124.462-.17.176-.044.352-.08.527-.109l.205-.033zm-2.34-1.051c.128-.162.29-.309.485-.441a1.56 1.56 0 0 1 .635-.253c.246-.04.463-.015.65.073s.299.254.337.497l.012.079c-.35.056-.708.133-1.072.231a3.943 3.943 0 0 0-.971.398 1.918 1.918 0 0 0-.662.621c-.158.248-.209.549-.154.904.046.289.139.523.28.703.14.18.307.315.497.406.19.09.394.146.61.165.216.02.421.013.616-.018.292-.046.555-.146.787-.297.233-.152.395-.34.486-.563l.03-.004.081.522 1.461-.233-.385-2.475a4.891 4.891 0 0 0-.303-1.14 2.045 2.045 0 0 0-.51-.746 1.558 1.558 0 0 0-.76-.364c-.3-.057-.653-.052-1.062.013a3.431 3.431 0 0 0-1.132.393 2.84 2.84 0 0 0-.901.78zm-.945 3.404l-3.633-5.915-2.14 1.226.997 4.558-.034.02-3.724-2.995-2.104 1.207 3.633 5.915 1.392-.798-2.605-4.166.026-.015 4.119 3.299 1.037-.595-.98-5.099.027-.015 2.536 4.206z"/></g></g></svg>
