<svg xmlns="http://www.w3.org/2000/svg" width="282" height="164" viewBox="0 0 282 164"><defs><clipPath id="3n2aa"><path fill="#fff" d="M0 15C0 6.716 6.716 0 15 0h252c8.284 0 15 6.716 15 15v134c0 8.284-6.716 15-15 15H15c-8.284 0-15-6.716-15-15z"/></clipPath></defs><g><g><g><g><path d="M0 15C0 6.716 6.716 0 15 0h252c8.284 0 15 6.716 15 15v134c0 8.284-6.716 15-15 15H15c-8.284 0-15-6.716-15-15z"/><path fill="none" stroke="#000" stroke-miterlimit="50" stroke-width="2" d="M0 15C0 6.716 6.716 0 15 0h252c8.284 0 15 6.716 15 15v134c0 8.284-6.716 15-15 15H15c-8.284 0-15-6.716-15-15z" clip-path="url(&quot;#3n2aa&quot;)"/></g><g><g><g><text fill="#fff" dominant-baseline="text-before-edge" font-family="'Avenir Next Cyr Medium','AvenirNext-Medium'" font-size="25" transform="translate(17 61)"><tspan>**** **** 0000</tspan></text></g></g></g><g><g><g><text fill="#fff" dominant-baseline="text-before-edge" font-family="'Avenir Next Cyr Medium','AvenirNext-Medium'" font-size="12" transform="translate(18 99)"><tspan>00/00</tspan></text></g></g><g><g><text dominant-baseline="text-before-edge" style="line-height:4px" fill="#fff" font-family="'Avenir Next Cyr Medium','AvenirNext-Medium'" font-size="5" transform="translate(18 93)"><tspan style="line-height:4px">EXPIRE DATE</tspan></text></g></g></g><g><g><text fill="#fff" dominant-baseline="text-before-edge" font-family="'Avenir Next Cyr Medium','AvenirNext-Medium'" font-size="14" transform="translate(18 122)"><tspan>NAME SURNAME</tspan></text></g></g></g><g><g><g><path fill="#f1ad3d" d="M249.51 148.746l.692-.018.683-.051.67-.087.666-.12.647-.153.64-.185.624-.216.611-.245.597-.277.58-.3.562-.332.547-.355.525-.383.507-.406.49-.43.466-.456.448-.476.421-.498.398-.517.376-.535.349-.559.326-.572.294-.59.272-.61.24-.622.212-.638.182-.65.149-.66.118-.678.086-.683.05-.697.018-.706-.019-.702-.05-.691-.085-.684-.118-.669-.15-.66-.18-.646-.213-.636-.24-.619-.272-.604-.294-.59-.326-.568-.349-.559-.376-.535-.398-.512-.42-.499-.45-.475-.465-.452-.49-.43-.507-.405-.525-.384-.547-.355-.562-.327-.58-.3-.597-.277-.611-.245-.625-.217-.639-.184-.647-.153-.665-.12-.67-.087-.684-.05-.693-.02-.688.02-.684.05-.67.087-.66.12-.648.153-.638.184-.62.217-.612.245-.593.277-.575.3-.561.327-.544.355-.525.384-.507.406-.484.429-.467.452-.443.475-.421.499-.399.512-.371.535-.349.559-.321.567-.299.59-.267.605-.24.619-.208.636-.181.646-.15.66-.117.67-.086.683-.05.691-.018.702.018.706.05.697.086.683.117.678.15.66.181.65.208.638.24.622.267.61.299.59.321.572.349.559.371.535.399.517.42.498.444.476.467.456.484.43.507.406.525.383.544.355.561.332.575.3.593.277.611.245.62.216.639.185.647.152.661.12.67.088.684.05.688.02"/></g><g><path fill="#d82332" d="M231.553 148.746l.689-.018.683-.051.67-.087.661-.12.648-.153.638-.185.62-.216.612-.245.593-.277.574-.3.562-.332.543-.355.526-.383.507-.406.484-.43.466-.456.444-.476.42-.498.4-.517.37-.535.35-.559.32-.572.3-.59.266-.61.24-.622.209-.638.18-.65.15-.66.118-.678.086-.683.05-.697.018-.706-.018-.702-.05-.691-.086-.684-.118-.669-.15-.66-.18-.646-.208-.636-.24-.619-.268-.604-.298-.59-.322-.568-.348-.559-.372-.535-.398-.512-.421-.499-.444-.475-.466-.452-.484-.43-.507-.405-.526-.384-.543-.355-.562-.327-.574-.3-.593-.277-.612-.245-.62-.217-.638-.184-.648-.153-.66-.12-.67-.087-.684-.05-.689-.02-.692.02-.684.05-.67.087-.666.12-.647.153-.638.184-.625.217-.611.245-.598.277-.58.3-.56.327-.549.355-.525.384-.507.406-.489.429-.466.452-.448.475-.421.499-.399.512-.376.535-.348.559-.326.567-.295.59-.27.605-.24.619-.214.636-.181.646-.15.66-.117.67-.086.683-.05.691-.018.702.018.706.05.697.086.683.118.678.149.66.181.65.213.638.24.622.271.61.295.59.326.572.348.559.376.535.399.517.42.498.449.476.466.456.49.43.506.406.525.383.548.355.562.332.58.3.597.277.61.245.626.216.638.185.647.152.666.12.67.088.684.05.692.02"/></g><g><path fill="#f1ad3d" d="M238.958 126.634h7.131v-.743h-6.515l-.616.743"/></g><g><path fill="#f1ad3d" d="M237.89 128.287h8.199v-.743h-7.77l-.43.743"/></g><g><path fill="#f1ad3d" d="M237.096 129.934h8.996v-.743h-8.68l-.316.743"/></g><g><path fill="#f1ad3d" d="M236.546 131.586h9.544v-.743h-9.317l-.227.743"/></g><g><path fill="#f1ad3d" d="M236.864 139.569h9.25v-.743h-9.476l.226.743"/></g><g><path fill="#f1ad3d" d="M237.548 141.222h8.566v-.743h-8.905l.34.743"/></g><g><path fill="#f1ad3d" d="M238.506 142.868h7.606v-.743h-8.064l.458.743"/></g><g><path fill="#f1ad3d" d="M239.829 144.52h6.284v-.748h-6.923l.639.747"/></g><g><path fill="#f1ad3d" d="M236.226 133.233h9.865v-.743h-9.725l-.14.743"/></g><g><path fill="#f1ad3d" d="M242.238 137.922H246v-.743h-3.627l-.135.743"/></g><g><path fill="#f1ad3d" d="M242.537 136.274H246v-.748h-3.327l-.136.748"/></g><g><path fill="#f1ad3d" d="M235.975 135.526h.978v.748h-.933l-.045-.748"/></g><g><path fill="#fffffe" d="M234.151 134.627l-.064-.005-.063-.01-.059-.009-.058-.009-.055-.009-.059-.01-.059-.009-.063-.009-.063-.01-.073-.004-.081-.004-.086-.005h-.095l-.104.005-.118.009-.131.01-.091.013-.086.014-.077.028-.068.027-.063.033-.06.037-.085.087-.027.05-.023.052-.01.055v.056l.014.06.019.06.036.06.045.06.09.087.11.07.126.06.136.05.145.046.149.05.15.056.144.06.136.079.127.097.113.115.095.143.073.175.045.208.018.25-.018.29-.032.217-.054.19-.073.175-.09.152-.104.133-.118.116-.127.101-.14.088-.145.07-.15.06-.153.045-.158.037-.155.028-.149.014-.15.01-.14.004h-.194l-.181-.005h-.159l-.15-.005-.135-.004-.122-.01-.109-.009-.104-.013-.095-.01-.086-.018-.086-.014-.077-.023-.077-.018-.073-.028-.072-.028-.077-.028.204-1.02.04.01.05.014.064.018.076.019.082.018.09.019.1.022.109.02.113.018.118.018.122.014.127.014.131.004.131.005h.132l.131-.005.131-.027.104-.037.082-.051.063-.065.046-.064.036-.074.023-.074.018-.07.009-.133-.041-.115-.077-.092-.113-.08-.136-.068-.159-.07-.176-.064-.177-.074-.18-.083-.173-.097-.158-.12-.145-.143-.113-.175-.082-.208-.04-.25.004-.294.023-.18.031-.171.046-.157.054-.148.072-.138.082-.12.095-.116.113-.101.131-.088.145-.074.163-.069.181-.05.204-.042.222-.032.244-.019.267-.004h.168l.154.004.14.005.127.004.113.01.104.009.09.009.082.01.077.009.064.013.058.01.055.009.045.009.04.005.042.009.036.005-.231 1.043"/></g><g><path fill="none" stroke="#fffffe" stroke-miterlimit="50" stroke-width=".39" d="M234.151 134.627v0l-.064-.005v0l-.063-.01v0l-.059-.009v0l-.058-.009v0l-.055-.009v0l-.059-.01v0l-.059-.009v0l-.063-.009v0l-.063-.01v0l-.073-.004v0l-.081-.004v0l-.086-.005v0h-.095v0l-.104.005v0l-.118.009v0l-.131.01v0l-.091.013v0l-.086.014v0l-.077.028v0l-.068.027v0l-.063.033v0l-.06.037v0l-.085.087v0l-.027.05v0l-.023.052v0l-.01.055v.056l.014.06v0l.019.06v0l.036.06v0l.045.06v0l.09.087v0l.11.07v0l.126.06v0l.136.05v0l.145.046v0l.149.05v0l.15.056v0l.144.06v0l.136.079v0l.127.097v0l.113.115v0l.095.143v0l.073.175v0l.045.208v0l.018.25v0l-.018.29v0l-.032.217v0l-.054.19v0l-.073.175v0l-.09.152v0l-.104.133v0l-.118.116v0l-.127.101v0l-.14.088v0l-.145.07v0l-.15.06v0l-.153.045v0l-.158.037v0l-.155.028v0l-.149.014v0l-.15.01v0l-.14.004v0h-.194v0l-.181-.005v0h-.159v0l-.15-.005v0l-.135-.004v0l-.122-.01v0l-.109-.009v0l-.104-.013v0l-.095-.01v0l-.086-.018v0l-.086-.014v0l-.077-.023v0l-.077-.018v0l-.073-.028v0l-.072-.028v0l-.077-.028v0l.204-1.02v0l.04.01v0l.05.014v0l.064.018v0l.076.019v0l.082.018v0l.09.019v0l.1.022v0l.109.02v0l.113.018v0l.118.018v0l.122.014v0l.127.014v0l.131.004v0l.131.005v0h.132v0l.131-.005v0l.131-.027v0l.104-.037v0l.082-.051v0l.063-.065v0l.046-.064v0l.036-.074v0l.023-.074v0l.018-.07v0l.009-.133v0l-.041-.115v0l-.077-.092v0l-.113-.08v0l-.136-.068v0l-.159-.07v0l-.176-.064v0l-.177-.074v0l-.18-.083v0l-.173-.097v0l-.158-.12v0l-.145-.143v0l-.113-.175v0l-.082-.208v0l-.04-.25v0l.004-.294v0l.023-.18v0l.031-.171v0l.046-.157v0l.054-.148v0l.072-.138v0l.082-.12v0l.095-.116v0l.113-.101v0l.131-.088v0l.145-.074v0l.163-.069v0l.181-.05v0l.204-.042v0l.222-.032v0l.244-.019v0l.267-.004v0h.168v0l.154.004v0l.14.005v0l.127.004v0l.113.01v0l.104.009v0l.09.009v0l.082.01v0l.077.009v0l.064.013v0l.058.01v0l.055.009v0l.045.009v0l.04.005v0l.042.009v0l.036.005v0l-.231 1.043v0"/></g><g><path fill="#fffffe" d="M235.224 132.443h1.254l-.185 1.117h.756l-.163 1.042-.797-.023-.434 2.575-.005.093.022.078.046.06.059.05.081.033.09.028.1.018.109.01.1-.005.09-.01.082-.013.072-.019.059-.018.04-.014.028-.01.009-.004-.159.858-.031.023-.032.019-.032.018-.031.02-.032.013-.036.014-.041.014-.04.013-.046.014-.045.01-.055.009-.054.009-.059.009-.068.01-.072.008-.077.01h-.344l-.181-.014-.159-.019-.145-.027-.122-.032-.104-.042-.086-.046-.077-.056-.059-.06-.045-.064-.032-.079-.022-.078-.014-.088-.005-.097v-.101l.014-.106.014-.116.864-5.034"/></g><g><path fill="none" stroke="#fffffe" stroke-miterlimit="50" stroke-width=".39" d="M235.224 132.443v0h1.254v0l-.185 1.117v0h.756v0l-.163 1.042v0l-.797-.023v0l-.434 2.575v0l-.005.093v0l.022.078v0l.046.06v0l.059.05v0l.081.033v0l.09.028v0l.1.018v0l.109.01v0l.1-.005v0l.09-.01v0l.082-.013v0l.072-.019v0l.059-.018v0l.04-.014v0l.028-.01v0l.009-.004v0l-.159.858v0l-.031.023v0l-.032.019v0l-.032.018v0l-.031.02v0l-.032.013v0l-.036.014v0l-.041.014v0l-.04.013v0l-.046.014v0l-.045.01v0l-.055.009v0l-.054.009v0l-.059.009v0l-.068.01v0l-.072.008v0l-.077.01v0h-.344v0l-.181-.014v0l-.159-.019v0l-.145-.027v0l-.122-.032v0l-.104-.042v0l-.086-.046v0l-.077-.056v0l-.059-.06v0l-.045-.064v0l-.032-.079v0l-.022-.078v0l-.014-.088v0l-.005-.097v0-.101 0l.014-.106v0l.014-.116v0l.864-5.034v0"/></g><g><path fill="#fffffe" d="M238.048 136.343l-.013.078-.005.083.01.088.017.088.032.088.036.083.05.087.054.079.064.078.068.07.072.069.082.055.081.05.09.042.091.032.09.02.118.018.114.013.117.014.118.01.118.004h.122l.118-.005.122-.009.122-.018.122-.023.127-.028.122-.042.127-.05.131-.056.127-.073.132-.079-.182 1.135-.072.037-.072.037-.073.028-.068.027-.068.024-.072.023-.073.018-.077.014-.081.014-.09.009-.096.01-.104.008-.117.005h-.123l-.14.004h-.15l-.221-.004-.227-.023-.226-.032-.226-.056-.222-.069-.213-.088-.204-.115-.19-.134-.177-.157-.154-.189-.13-.212-.11-.245-.076-.272-.05-.31-.014-.34.023-.38.018-.147.027-.17.036-.18.05-.194.068-.199.082-.198.104-.203.126-.194.145-.184.177-.176.199-.157.227-.138.262-.116.294-.083.326-.055.367-.018.177.004.185.019.186.032.186.046.18.07.177.082.163.111.15.13.135.156.114.185.09.212.064.245.036.276.004.314-.031.351-.068.388-.023.28h-3.3l.208-.908h1.983l.009-.115-.005-.111-.009-.102-.018-.092-.032-.088-.031-.078-.046-.07-.045-.064-.054-.055-.059-.046-.068-.042-.068-.037-.072-.027-.073-.019-.077-.014-.081-.009-.086.005-.081.013-.078.019-.077.027-.077.037-.067.042-.068.05-.06.056-.058.065-.054.069-.05.074-.04.078-.042.083-.031.093-.027.092-.019.097-.18.955"/></g><g><path fill="none" stroke="#fffffe" stroke-miterlimit="50" stroke-width=".39" d="M238.048 136.343v0l-.013.078v0l-.005.083v0l.01.088v0l.017.088v0l.032.088v0l.036.083v0l.05.087v0l.054.079v0l.064.078v0l.068.07v0l.072.069v0l.082.055v0l.081.05v0l.09.042v0l.091.032v0l.09.02v0l.118.018v0l.114.013v0l.117.014v0l.118.01v0l.118.004v0h.122v0l.118-.005v0l.122-.009v0l.122-.018v0l.122-.023v0l.127-.028v0l.122-.042v0l.127-.05v0l.131-.056v0l.127-.073v0l.132-.079v0l-.182 1.135v0l-.072.037v0l-.072.037v0l-.073.028v0l-.068.027v0l-.068.024v0l-.072.023v0l-.073.018v0l-.077.014v0l-.081.014v0l-.09.009v0l-.096.01v0l-.104.008v0l-.117.005v0h-.123v0l-.14.004v0h-.15v0l-.221-.004v0l-.227-.023v0l-.226-.032v0l-.226-.056v0l-.222-.069v0l-.213-.088v0l-.204-.115v0l-.19-.134v0l-.177-.157v0l-.154-.189v0l-.13-.212v0l-.11-.245v0l-.076-.272v0l-.05-.31v0l-.014-.34v0l.023-.38v0l.018-.147v0l.027-.17v0l.036-.18v0l.05-.194v0l.068-.199v0l.082-.198v0l.104-.203v0l.126-.194v0l.145-.184v0l.177-.176v0l.199-.157v0l.227-.138v0l.262-.116v0l.294-.083v0l.326-.055v0l.367-.018v0l.177.004v0l.185.019v0l.186.032v0l.186.046v0l.18.07v0l.177.082v0l.163.111v0l.15.13v0l.135.156v0l.114.185v0l.09.212v0l.064.245v0l.036.276v0l.004.314v0l-.031.351v0l-.068.388v0l-.023.28v0h-3.3v0l.208-.908v0h1.983v0l.009-.115v0l-.005-.111v0l-.009-.102v0l-.018-.092v0l-.032-.088v0l-.031-.078v0l-.046-.07v0l-.045-.064v0l-.054-.055v0l-.059-.046v0l-.068-.042v0l-.068-.037v0l-.072-.027v0l-.073-.019v0l-.077-.014v0l-.081-.009v0l-.086.005v0l-.081.013v0l-.078.019v0l-.077.027v0l-.077.037v0l-.067.042v0l-.068.05v0l-.06.056v0l-.058.065v0l-.054.069v0l-.05.074v0l-.04.078v0l-.042.083v0l-.031.093v0l-.027.092v0l-.019.097v0l-.18.955v0"/></g><g><path fill="#fffffe" d="M248.846 133.838l-.058-.033-.06-.027-.063-.033-.068-.032-.067-.028-.078-.028-.077-.027-.081-.028-.086-.023-.086-.018-.095-.019-.095-.014-.104-.009-.105-.01h-.334l-.118.01-.122.014-.127.023-.127.037-.127.05-.126.065-.127.083-.122.102-.118.12-.113.148-.109.17-.1.203-.095.231-.086.259-.072.295-.027.166-.019.161-.009.162.005.157.014.157.031.147.04.139.05.138.069.125.081.12.095.106.109.097.122.083.14.07.155.06.172.04.058.014.068.014.082.01.09.009.1.009h.217l.113-.01.118-.013.118-.023.113-.032.113-.037.113-.051.105-.06.095-.074.09-.083-.203 1.232-.028.023-.027.028-.036.032-.04.028-.05.037-.064.032-.072.032-.082.028-.104.032-.118.023-.136.019-.158.018-.177.01-.203.004-.231-.004-.254-.014-.208-.023-.208-.046-.208-.07-.209-.092-.2-.11-.19-.14-.18-.16-.168-.185-.15-.208-.126-.23-.109-.26-.081-.28-.054-.31-.019-.327.01-.36.05-.383.035-.19.041-.184.046-.18.045-.17.05-.162.058-.162.06-.152.062-.143.069-.143.068-.134.076-.13.082-.12.082-.115.09-.11.09-.102.095-.097.105-.092.104-.088.108-.078.114-.074.122-.07.122-.06.127-.055.131-.05.14-.046.141-.037.145-.033.154-.027.154-.024.163-.018.163-.01.172-.004.145.005.14.01.136.013.136.018.126.019.123.028.117.023.109.027.104.028.09.028.087.027.072.028.064.023.054.019.04.018.028.01-.227 1.278"/></g><g><path fill="none" stroke="#fffffe" stroke-miterlimit="50" stroke-width=".39" d="M248.846 133.838v0l-.058-.033v0l-.06-.027v0l-.063-.033v0l-.068-.032v0l-.067-.028v0l-.078-.028v0l-.077-.027v0l-.081-.028v0l-.086-.023v0l-.086-.018v0l-.095-.019v0l-.095-.014v0l-.104-.009v0l-.105-.01v0h-.334v0l-.118.01v0l-.122.014v0l-.127.023v0l-.127.037v0l-.127.05v0l-.126.065v0l-.127.083v0l-.122.102v0l-.118.12v0l-.113.148v0l-.109.17v0l-.1.203v0l-.095.231v0l-.086.259v0l-.072.295v0l-.027.166v0l-.019.161v0l-.009.162v0l.005.157v0l.014.157v0l.031.147v0l.04.139v0l.05.138v0l.069.125v0l.081.12v0l.095.106v0l.109.097v0l.122.083v0l.14.07v0l.155.06v0l.172.04v0l.058.014v0l.068.014v0l.082.01v0l.09.009v0l.1.009v0h.217v0l.113-.01v0l.118-.013v0l.118-.023v0l.113-.032v0l.113-.037v0l.113-.051v0l.105-.06v0l.095-.074v0l.09-.083v0l-.203 1.232v0l-.028.023v0l-.027.028v0l-.036.032v0l-.04.028v0l-.05.037v0l-.064.032v0l-.072.032v0l-.082.028v0l-.104.032v0l-.118.023v0l-.136.019v0l-.158.018v0l-.177.01v0l-.203.004v0l-.231-.004v0l-.254-.014v0l-.208-.023v0l-.208-.046v0l-.208-.07v0l-.209-.092v0l-.2-.11v0l-.19-.14v0l-.18-.16v0l-.168-.185v0l-.15-.208v0l-.126-.23v0l-.109-.26v0l-.081-.28v0l-.054-.31v0l-.019-.327v0l.01-.36v0l.05-.383v0l.035-.19v0l.041-.184v0l.046-.18v0l.045-.17v0l.05-.162v0l.058-.162v0l.06-.152v0l.062-.143v0l.069-.143v0l.068-.134v0l.076-.13v0l.082-.12v0l.082-.115v0l.09-.11v0l.09-.102v0l.095-.097v0l.105-.092v0l.104-.088v0l.108-.078v0l.114-.074v0l.122-.07v0l.122-.06v0l.127-.055v0l.131-.05v0l.14-.046v0l.141-.037v0l.145-.033v0l.154-.027v0l.154-.024v0l.163-.018v0l.163-.01v0l.172-.004v0l.145.005v0l.14.01v0l.136.013v0l.136.018v0l.126.019v0l.123.028v0l.117.023v0l.109.027v0l.104.028v0l.09.028v0l.087.027v0l.072.028v0l.064.023v0l.054.019v0l.04.018v0l.028.01v0l-.227 1.278v0"/></g><g><path fill="#fffffe" d="M259.993 138.504h-1.254l.09-.512v-.047l-.071.093-.078.083-.076.074-.082.064-.082.06-.08.051-.082.042-.087.041-.085.032-.173.047-.09.013-.09.014-.087.01-.09.004h-.09l-.236-.019-.218-.05-.199-.079-.18-.106-.164-.134-.145-.156-.126-.171-.109-.194-.09-.208-.073-.216-.05-.227-.036-.235-.014-.235.005-.24.022-.236.041-.235.068-.272.082-.259.095-.235.113-.222.118-.207.135-.185.14-.166.15-.152.159-.134.167-.115.172-.102.172-.078.181-.065.181-.041.182-.028.185-.01.132.005.126.014.118.023.109.032.104.037.09.042.09.05.082.051.073.056.068.06.058.06.055.06.045.06.04.06.037.055.027.055.317-1.813h1.232l-1.024 6.036"/></g><g><path fill="none" stroke="#fffffe" stroke-miterlimit="50" stroke-width=".39" d="M259.993 138.504v0h-1.254v0l.09-.512v0-.047 0l-.071.093v0l-.078.083v0l-.076.074v0l-.082.064v0l-.082.06v0l-.08.051v0l-.082.042v0l-.087.041v0l-.085.032v0l-.173.047v0l-.09.013v0l-.09.014v0l-.087.01v0l-.09.004v0h-.09v0l-.236-.019v0l-.218-.05v0l-.199-.079v0l-.18-.106v0l-.164-.134v0l-.145-.156v0l-.126-.171v0l-.109-.194v0l-.09-.208v0l-.073-.216v0l-.05-.227v0l-.036-.235v0l-.014-.235v0l.005-.24v0l.022-.236v0l.041-.235v0l.068-.272v0l.082-.259v0l.095-.235v0l.113-.222v0l.118-.207v0l.135-.185v0l.14-.166v0l.15-.152v0l.159-.134v0l.167-.115v0l.172-.102v0l.172-.078v0l.181-.065v0l.181-.041v0l.182-.028v0l.185-.01v0l.132.005v0l.126.014v0l.118.023v0l.109.032v0l.104.037v0l.09.042v0l.09.05v0l.082.051v0l.073.056v0l.068.06v0l.058.06v0l.055.06v0l.045.06v0l.04.06v0l.037.055v0l.027.055v0l.317-1.813v0h1.232v0l-1.024 6.036v0"/></g><g><path fill="#f1ad3d" d="M257.944 137.385l.127-.009.118-.027.108-.033.104-.05.095-.056.091-.07.086-.078.077-.083.068-.092.063-.102.06-.106.049-.11.045-.116.036-.12.032-.124.023-.125.022-.13.014-.133v-.125l-.005-.129-.013-.12-.018-.115-.032-.11-.036-.107-.045-.092-.055-.088-.059-.074-.068-.065-.077-.055-.081-.037-.086-.023-.095-.01-.122.01-.114.019-.104.037-.104.046-.09.06-.09.074-.078.078-.077.088-.068.1-.063.107-.06.11-.049.12-.045.125-.036.125-.037.134-.027.134-.022.203.009.221.031.227.06.216.09.19.118.152.149.101.181.037"/></g><g><path fill="#fffffe" d="M230.14 137.479l-.181 1.024h-1.141l.031-.189.023-.17.018-.13.018-.07-.063.075-.073.074-.086.069-.095.065-.108.064-.114.055-.117.056-.122.046-.132.041-.131.033-.131.028-.136.018-.131.01-.132.004-.127-.014-.122-.018-.158-.042-.145-.046-.127-.06-.113-.07-.1-.073-.09-.083-.073-.088-.063-.092-.054-.097-.046-.102-.036-.101-.027-.102-.018-.106-.014-.106-.009-.102v-.101l.014-.18.027-.17.045-.162.059-.157.073-.148.081-.134.095-.129.109-.115.113-.107.127-.096.13-.088.137-.074.145-.064.15-.051.153-.042.158-.027h.01l.022-.005.032-.005.05-.004.054-.01.063-.004.068-.01.077-.009.077-.009.077-.009.082-.004.072-.01.073-.004.068-.005.063-.005h.154l.109.005.099.005h.1l.081.004.064.005.045.005h.013l.01-.033.027-.083.022-.097.01-.087-.019-.102-.04-.092-.055-.084-.072-.069-.086-.06-.095-.041-.109-.028-.118-.009-.127-.005-.135-.004h-.14l-.146.004-.15.01-.144.013-.145.014-.14.019-.136.018-.131.023-.118.023-.108.023-.1.028-.082.028-.063.032-.05.028.322-1.112.1-.042.099-.037.108-.032.109-.023.109-.023.118-.019.117-.018.122-.01.127-.009.131-.004.136-.005h.435l.158.005.159.004.127.01.135.023.14.032.146.041.14.056.136.065.136.078.127.088.112.101.1.11.09.125.069.139.045.148.027.156v.176l-.027.184-.457 2.437"/></g><g><path fill="none" stroke="#fffffe" stroke-miterlimit="50" stroke-width=".39" d="M230.14 137.479v0l-.181 1.024v0h-1.141v0l.031-.189v0l.023-.17v0l.018-.13v0l.018-.07v0l-.063.075v0l-.073.074v0l-.086.069v0l-.095.065v0l-.108.064v0l-.114.055v0l-.117.056v0l-.122.046v0l-.132.041v0l-.131.033v0l-.131.028v0l-.136.018v0l-.131.01v0l-.132.004v0l-.127-.014v0l-.122-.018v0l-.158-.042v0l-.145-.046v0l-.127-.06v0l-.113-.07v0l-.1-.073v0l-.09-.083v0l-.073-.088v0l-.063-.092v0l-.054-.097v0l-.046-.102v0l-.036-.101v0l-.027-.102v0l-.018-.106v0l-.014-.106v0l-.009-.102v0-.101 0l.014-.18v0l.027-.17v0l.045-.162v0l.059-.157v0l.073-.148v0l.081-.134v0l.095-.129v0l.109-.115v0l.113-.107v0l.127-.096v0l.13-.088v0l.137-.074v0l.145-.064v0l.15-.051v0l.153-.042v0l.158-.027v0h.01v0l.022-.005v0l.032-.005v0l.05-.004v0l.054-.01v0l.063-.004v0l.068-.01v0l.077-.009v0l.077-.009v0l.077-.009v0l.082-.004v0l.072-.01v0l.073-.004v0l.068-.005v0l.063-.005v0h.154v0l.109.005v0l.099.005v0h.1v0l.081.004v0l.064.005v0l.045.005v0h.013v0l.01-.033v0l.027-.083v0l.022-.097v0l.01-.087v0l-.019-.102v0l-.04-.092v0l-.055-.084v0l-.072-.069v0l-.086-.06v0l-.095-.041v0l-.109-.028v0l-.118-.009v0l-.127-.005v0l-.135-.004v0h-.14v0l-.146.004v0l-.15.01v0l-.144.013v0l-.145.014v0l-.14.019v0l-.136.018v0l-.131.023v0l-.118.023v0l-.108.023v0l-.1.028v0l-.082.028v0l-.063.032v0l-.05.028v0l.322-1.112v0l.1-.042v0l.099-.037v0l.108-.032v0l.109-.023v0l.109-.023v0l.118-.019v0l.117-.018v0l.122-.01v0l.127-.009v0l.131-.004v0l.136-.005v0h.435v0l.158.005v0l.159.004v0l.127.01v0l.135.023v0l.14.032v0l.146.041v0l.14.056v0l.136.065v0l.136.078v0l.127.088v0l.112.101v0l.1.11v0l.09.125v0l.069.139v0l.045.148v0l.027.156v.176l-.027.184v0l-.457 2.437v0"/></g><g><path fill="#d82332" d="M229.048 136.273l-.004-.023-.018-.023-.028-.014-.045-.01-.05-.008-.059-.005h-.135l-.073.005-.077.009-.072.009-.073.01-.068.008-.063.014-.054.014-.05.014-.032.01-.036.013-.05.019-.05.023-.059.027-.058.033-.064.032-.059.037-.063.046-.059.046-.054.056-.05.055-.045.06-.032.065-.027.073-.014.074-.004.157.022.125.046.092.059.07.067.045.078.028.072.014.072.004.136-.004.122-.014.118-.018.104-.028.09-.032.087-.042.077-.041.068-.051.059-.046.054-.056.045-.05.036-.056.032-.055.027-.056.023-.05.013-.051.037-.134.031-.152.028-.148.022-.12"/></g><g><path fill="#fffffe" d="M220.615 138.502h-1.232l1.028-6.059h2.141l.204 3.595 1.48-3.595h2.237l-1.05 6.059h-1.232l.779-4.527h-.05l-1.842 4.527h-1.39l-.01-.19-.031-.503-.04-.715-.091-1.647-.041-.725-.032-.526-.009-.221h-.068l-.751 4.527"/></g><g><path fill="none" stroke="#fffffe" stroke-miterlimit="50" stroke-width=".39" d="M220.615 138.502v0h-1.232v0l1.028-6.059v0h2.141v0l.204 3.595v0l1.48-3.595v0h2.237v0l-1.05 6.059v0h-1.232v0l.779-4.527v0h-.05v0l-1.842 4.527v0h-1.39v0l-.01-.19v0l-.031-.503v0l-.04-.715v0l-.091-1.647v0l-.041-.725v0l-.032-.526v0l-.009-.221v0h-.068v0l-.751 4.527v0"/></g><g><path fill="#fffffe" d="M252.61 137.479l-.185 1.024h-1.136l.009-.189.005-.166v-.125l.008-.055-.058.07-.068.068-.082.065-.09.065-.095.06-.109.055-.113.055-.113.047-.123.036-.126.037-.127.023-.127.019-.131.01-.127.004-.122-.014-.122-.019-.163-.041-.145-.046-.127-.06-.118-.07-.1-.073-.085-.083-.073-.088-.063-.092-.054-.097-.041-.102-.036-.101-.023-.102-.018-.106-.014-.106-.009-.102v-.101l.01-.18.026-.17.041-.162.059-.157.068-.148.086-.134.095-.129.104-.115.118-.107.122-.096.131-.088.14-.074.141-.064.15-.051.149-.042.154-.027h.009l.022-.005.032-.005.045-.004.06-.01.063-.004.067-.01.073-.009.077-.009.081-.009.077-.004.077-.01.073-.004.063-.005.064-.005h.158l.109.005.104.005h.1l.085.004.073.005.04.005h.019l.009-.033.013-.083.014-.097.01-.087-.02-.102-.035-.092-.06-.084-.067-.069-.082-.06-.095-.041-.1-.028-.108-.009-.127-.005-.136-.004h-.14l-.145.004-.15.01-.144.013-.145.014-.14.019-.136.018-.131.023-.118.023-.109.023-.1.028-.08.028-.064.032-.05.028.317-1.112.1-.042.104-.037.104-.032.109-.023.113-.023.113-.019.117-.018.123-.01.126-.009.132-.004.131-.005h.426l.154.005.153.004.127.01.136.023.14.032.145.041.14.056.14.065.137.078.127.087.113.102.104.11.09.125.069.139.05.148.03.156v.176l-.022.184-.475 2.437"/></g><g><path fill="#fffffe" d="M252.436 138.535l.04-.028.272-1.024-.08-.01-.272 1.025.04-.028v.065l.033-.005.006-.023-.04.028"/></g><g><path fill="#fffffe" d="M251.261 138.52l.028.048h1.136v-.096h-1.136l.027.048h-.055l-.004.048h.032l-.028-.048"/></g><g><path fill="#fffffe" d="M251.367 137.986l-.06-.037-.027.074-.006.124v.167l-.014.189h.08l.013-.19.014-.166-.007-.124v-.037l-.06-.037.067.037"/></g><g><path fill="#fffffe" d="M249.572 138.577l.126.018.123.014.127-.005.13-.009.132-.018.127-.023.127-.037.126-.037.114-.046.117-.056.109-.055.095-.065.095-.064.082-.065.072-.074.059-.069-.045-.037-.06.07-.063.064-.081.064-.086.065-.095.056-.109.055-.109.055-.113.047-.117.037-.127.036-.127.024-.122.018-.131.01-.127.004-.123-.014-.117-.018-.01.055"/></g><g><path fill="#fffffe" d="M248.476 137.18l.004.1.01.102.013.111.018.106.022.101.037.107.04.106.06.097.063.096.072.088.09.088.105.074.118.074.13.06.15.046.163.041.01-.055-.164-.041-.14-.047-.122-.06-.118-.064-.095-.074-.082-.079-.072-.087-.064-.088-.05-.097-.04-.097-.036-.097-.023-.101-.018-.106-.014-.102-.009-.101.005-.102h-.063"/></g><g><path fill="#fffffe" d="M250.1 135.407l-.158.028-.154.042-.149.05-.145.065-.14.074-.136.092-.122.097-.118.11-.109.116-.095.13-.09.138-.068.152-.059.157-.04.166-.028.175-.013.18h.063l.004-.18.028-.166.04-.157.06-.157.067-.143.082-.129.094-.129.1-.115.118-.102.122-.097.127-.083.14-.074.136-.064.15-.051.144-.042.15-.027v-.056"/></g><g><path fill="#fffffe" d="M251.036 135.31h-.05l-.064.014-.063.007-.072.007-.077.013-.078.007-.08.014-.078.014-.072.013-.068.014-.064.007-.058.014-.046.006-.036.007-.018.008h-.01v.082h.01l.027-.007.027-.007.046-.007.058-.014.064-.006.068-.014.072-.014.077-.013.081-.015.078-.006.077-.014.072-.007.063-.007h.114v-.096"/></g><g><path fill="#fffffe" d="M251.645 135.386l.028-.035h-.019l-.04-.006-.073-.007-.086-.014h-.204l-.108-.014h-.109v.096h.217l.104.014h.186l.073.007.04.007h.019l.026-.035-.026.035.022.006.004-.04-.054-.014"/></g><g><path fill="#fffffe" d="M251.711 135.066h-.006l-.007.105-.02.11-.02.099-.013.038.08.012.013-.04.02-.098.02-.121.02-.105h-.087"/></g><g><path fill="#fffffe" d="M251.15 134.61v.004l.105.005.094.028.091.041.077.056.063.064.055.079.036.083.018.097h.055l-.019-.106-.036-.102-.063-.088-.073-.073-.086-.065-.1-.042-.103-.027-.114-.014v.06"/></g><g><path fill="#fffffe" d="M249.208 134.872l.045.032.046-.027.059-.037.077-.031.1-.032.108-.026.117-.026.132-.027.131-.02.14-.022.145-.016.145-.015.15-.011h.42l.127.005v-.063l-.126-.005-.136-.01h-.14l-.145.01-.15.01-.145.016-.145.016-.14.02-.14.022-.132.026-.117.027-.109.026-.1.032-.086.031-.068.037-.054.037.046.031-.055-.01"/></g><g><path fill="#fffffe" d="M249.543 133.695l-.018.023-.317 1.112.054.01.317-1.113-.018.023-.018-.055-.013.005-.005.018.018-.023"/></g><g><path fill="#fffffe" d="M251.559 133.488l-.154-.012-.154-.006h-.426l-.13.012-.132.006-.127.012-.122.011-.123.024-.112.024-.114.03-.108.03-.11.041-.103.048-.1.054.018.071.1-.054.104-.047.1-.042.108-.03.114-.03.113-.023.113-.024.122-.012.127-.012.131-.006h.557l.154.006h.154v-.071"/></g><g><path fill="#fffffe" d="M253.112 135.047l.023-.19v-.175l-.032-.162-.05-.152-.072-.143-.09-.129-.11-.115-.112-.102-.132-.088-.135-.083-.145-.064-.14-.056-.15-.041-.14-.032-.14-.023-.128-.01v.056l.127.009.132.023.14.032.14.042.14.055.136.065.136.074.122.087.114.102.1.106.09.12.063.134.05.143.032.152v.175l-.023.18.054.01"/></g><g><path fill="#fffffe" d="M252.637 137.484l.475-2.437-.055-.009-.475 2.437.055.009"/></g><g><path fill="#f1ad3d" d="M251.515 136.275l-.01-.028-.017-.023-.032-.014-.045-.014-.05-.004-.059-.005h-.068l-.068.005-.072.009-.073.01-.072.008-.068.01-.068.013-.059.01-.059.013-.045.01-.032.004-.036.014-.045.014-.05.018-.059.028-.054.028-.063.032-.118.083-.06.051-.049.05-.05.06-.04.065-.032.07-.027.073-.014.079-.004.156.022.125.036.092.055.07.068.046.077.028.077.014.077.004.135-.004.127-.014.118-.024.104-.032.1-.037.086-.041.081-.046.072-.056.064-.05.054-.06.05-.056.04-.06.032-.055.023-.056.018-.055.014-.05.018-.13.023-.134.018-.13.009-.114"/></g><g><path fill="#fffffe" d="M260.842 137.871l.009-.106.036-.125.063-.11.077-.097.095-.079.109-.055.118-.037.126-.014.127.014.118.037.108.055.096.079.077.097.063.11.036.125.01.106h-.137l-.004-.083-.027-.102-.045-.092-.06-.078-.072-.065-.086-.046-.1-.032-.104-.01-.104.01-.1.032-.085.046-.073.065-.059.078-.045.092-.027.102-.01.083h-.13"/></g><g><path fill="#fffffe" d="M261.248 137.959v-.363h.249l.054.005.05.013.036.018.032.024.023.036.018.037.009.042.004.042-.004.055-.01.042-.013.036-.01.013h-.19l.019-.006.032-.007.027-.012.022-.012.019-.018.009-.018.009-.03v-.043l-.005-.03-.01-.024-.013-.012-.013-.013-.023-.005-.022-.006h-.186v.236h-.113"/></g><g><path fill="#fffffe" d="M260.84 137.871l-.005.028.014.134.036.124.064.11.077.093.095.079.108.06.118.036.127.014.127-.014.117-.036.109-.06.095-.079.077-.092.064-.111.035-.124.014-.134-.004-.028h-.136l.004.028-.009.11-.027.102-.045.087-.059.079-.072.065-.087.05-.1.033-.103.009-.104-.01-.1-.032-.086-.05-.072-.065-.06-.079-.045-.087-.027-.102-.009-.11v-.028h-.131"/></g><g><path fill="#fffffe" d="M261.248 137.871v.363h.113v-.297h.113l.136.297h.09l-.135-.297h.031l.032-.013.027-.012.023-.023.009-.018h-.19l-.023.006h-.113v-.006h-.113"/></g><g><path fill="none" stroke="#fffffe" stroke-miterlimit="50" stroke-width=".39" d="M260.835 137.899l.014-.134.036-.125.064-.11.077-.097.095-.079.108-.055.118-.037.127-.014.127.014.117.037.109.055.095.079.077.097.064.11.035.125.014.134-.014.134-.035.124-.064.111-.077.092-.095.079-.109.06-.117.037-.127.013-.127-.013-.118-.037-.108-.06-.095-.079-.077-.092-.064-.111-.036-.124-.014-.134m.526.254h-.114v-.559h.25l.054.005.05.009.036.014.031.018.023.028.018.028.01.032.004.032-.005.042-.009.032-.013.028-.019.023-.022.018-.027.01-.032.009h-.032l.136.23h-.09l-.136-.23h-.113v.23m.113-.276l.04-.01.032-.004.027-.01.023-.009.018-.013.01-.014.008-.024v-.032l-.004-.023-.01-.018-.013-.01-.014-.009-.022-.004-.023-.005h-.185v.185h.113m0 .558l.104-.01.1-.032.086-.05.072-.065.059-.078.045-.088.027-.102.01-.11-.01-.11-.027-.103-.045-.092-.059-.078-.072-.065-.087-.046-.1-.032-.103-.01-.104.01-.1.032-.086.046-.072.065-.06.078-.045.092-.027.102-.009.11.01.111.026.102.046.088.059.078.072.065.086.05.1.033.104.009"/></g><g><path fill="#fffffe" d="M252.949 138.503h1.276l.458-2.625.018-.102.027-.101.027-.102.036-.101.046-.102.054-.097.059-.092.072-.088.082-.078.09-.074.104-.07.118-.055.131-.046.145-.037.159-.028.176-.009h.114l.203-1.186-.127.01-.122.014-.113.023-.109.032-.1.037-.094.046-.09.05-.087.056-.081.065-.077.064-.145.148-.068.078-.068.088-.068.083-.063.092.136-.835h-1.273l-.846 4.942"/></g><g><path fill="none" stroke="#fffffe" stroke-miterlimit="50" stroke-width=".39" d="M252.949 138.503v0h1.276v0l.458-2.625v0l.018-.102v0l.027-.101v0l.027-.102v0l.036-.101v0l.046-.102v0l.054-.097v0l.059-.092v0l.072-.088v0l.082-.078v0l.09-.074v0l.104-.07v0l.118-.055v0l.131-.046v0l.145-.037v0l.159-.028v0l.176-.009v0h.114v0l.203-1.186v0l-.127.01v0l-.122.014v0l-.113.023v0l-.109.032v0l-.1.037v0l-.094.046v0l-.09.05v0l-.087.056v0l-.081.065v0l-.077.064v0l-.145.148v0l-.068.078v0l-.068.088v0l-.068.083v0l-.063.092v0l.136-.835v0h-1.273v0l-.846 4.942v0"/></g><g><path fill="#fffffe" d="M240.961 138.503h1.3l.434-2.625.018-.102.046-.194.031-.092.037-.092.045-.088.054-.083.063-.078.073-.07.081-.069.1-.055.109-.05.127-.042.14-.037.154-.024.176-.013h.014l.018.004.023.005h.022l.023.004.018.005.013.005h.005l.018-.074.018-.083.023-.102.032-.12.031-.129.082-.258.036-.088.045-.088.046-.087.045-.079.04-.069.032-.055.023-.033.009-.013h-.005l-.018-.005-.022-.005-.032-.004h-.032l-.036-.005-.032-.005h-.031l-.14.01-.127.014-.118.023-.109.027-.104.037-.095.046-.086.046-.081.056-.078.06-.072.069-.068.07-.068.078-.068.078-.063.088-.068.092-.068.092.163-.835h-1.299l-.847 4.942"/></g><g><path fill="none" stroke="#fffffe" stroke-miterlimit="50" stroke-width=".39" d="M240.961 138.503v0h1.3v0l.434-2.625v0l.018-.102v0l.046-.194v0l.031-.092v0l.037-.092v0l.045-.088v0l.054-.083v0l.063-.078v0l.073-.07v0l.081-.069v0l.1-.055v0l.109-.05v0l.127-.042v0l.14-.037v0l.154-.024v0l.176-.013v0h.014v0l.018.004v0l.023.005v0h.022v0l.023.004v0l.018.005v0l.013.005v0h.005v0l.018-.074v0l.018-.083v0l.023-.102v0l.032-.12v0l.031-.129v0l.082-.258v0l.036-.088v0l.045-.088v0l.046-.087v0l.045-.079v0l.04-.069v0l.032-.055v0l.023-.033v0l.009-.013v0h-.005v0l-.018-.005v0l-.022-.005v0l-.032-.004v0h-.032v0l-.036-.005v0l-.032-.005v0h-.031v0l-.14.01v0l-.127.014v0l-.118.023v0l-.109.027v0l-.104.037v0l-.095.046v0l-.086.046v0l-.081.056v0l-.078.06v0l-.072.069v0l-.068.07v0l-.068.078v0l-.068.078v0l-.063.088v0l-.068.092v0l-.068.092v0l.163-.835v0h-1.299v0l-.847 4.942v0"/></g><g><path fill="#f1ad3d" d="M260.85 143.358v-.02l.037-.12.063-.105.077-.092.095-.074.109-.056.118-.032.126-.014.127.014.118.032.108.056.096.074.077.092.063.106.036.12v.019h-.131l-.027-.097-.045-.088-.06-.079-.072-.064-.086-.05-.1-.033-.104-.01-.104.01-.1.032-.085.05-.073.065-.059.079-.045.088-.027.097h-.131"/></g><g><path fill="#f1ad3d" d="M261.248 143.436v-.24h.303l.05.014.036.013.032.028.023.034.018.041.009.049.004.061h-.09v-.034l-.005-.035-.01-.027-.013-.014-.013-.013-.023-.007-.022-.007h-.186v.137h-.113"/></g><g><path fill="#f1ad3d" d="M260.835 143.51l.02-.151h.193v.006l-.013.144h-.2"/></g><g><path fill="#f1ad3d" d="M261.248 143.51v-.151h.113v.137h.113l.04-.014.033-.007.027-.014.022-.013.019-.021.009-.02.009-.035v-.013h.09l-.004.047-.01.042-.013.034-.018.027h-.43"/></g><g><path fill="#f1ad3d" d="M261.982 143.51l-.014-.145v-.006h.193l.02.15h-.2"/></g><g><path fill="#f1ad3d" d="M260.835 143.459v.013l.014.134.036.125.064.11.077.098.095.078.108.055.118.037.127.014.127-.014.117-.037.109-.055.095-.078.077-.097.064-.111.035-.125.014-.134v-.013h-.136v.013l-.009.111-.027.102-.045.087-.059.079-.072.065-.087.05-.1.032-.103.01-.104-.01-.1-.032-.086-.05-.072-.065-.06-.079-.045-.087-.027-.102-.009-.11v-.014h-.136"/></g><g><path fill="#f1ad3d" d="M261.248 143.459v.363h.113v-.313h.113l.136.313h.09l-.135-.313h.031l.032-.013.027-.012.023-.025h-.43"/></g></g></g></g></g></svg>
